<svg xmlns="http://www.w3.org/2000/svg" viewBox="0 0 768 288">
  <rect width="768" height="288" fill="#0b0f18" />
  <polygon points="6.6,269.2 14.5,251.6 24.1,155.1 40.0,132.0 52.1,132.0 68.0,120.1 73.0,92.2 84.5,80.8 106.4,74.0 213.9,72.0 235.9,65.7 247.4,55.2 260.6,21.1 297.6,15.7 321.7,26.5 337.4,0.0 345.1,34.2 357.1,42.4 414.2,42.7 520.3,28.2 593.3,39.3 611.1,62.9 653.9,82.5 667.3,96.2 681.9,147.4 692.8,241.3 703.8,243.3 734.5,270.4 765.5,273.2 768.0,282.9 585.3,288.0 275.9,280.6 269.6,268.1 252.3,109.3 243.6,115.0 222.4,184.1 195.8,205.5 153.1,221.7 140.2,261.8 122.3,281.7 103.7,284.9 93.0,263.0 76.5,280.9 49.4,286.9 4.9,285.2 0.0,283.4 3.3,274.1" fill="rgba(247,250,255,0.88)" stroke="#ff7a1a" stroke-width="2" />
  <circle cx="169.0" cy="247.7" r="15.0" fill="none" stroke="#ff7a1a" stroke-width="2" stroke-dasharray="5 4" /><circle cx="599.0" cy="247.7" r="15.0" fill="none" stroke="#ff7a1a" stroke-width="2" stroke-dasharray="5 4" />
  <text x="14" y="24" fill="#d7deea" font-family="monospace" font-size="14">Aston Martin · 47 pts · forward=z+, up=y+ (override)</text>
</svg>