<svg xmlns="http://www.w3.org/2000/svg" viewBox="0 0 480 280" role="img" aria-label="Yas Marina Circuit outline">
  <rect width="480" height="280" fill="#0a0d13"/>
  <path d="M 222.6 168.2 L 223.8 168.0 L 224.2 168.0 L 225.7 167.8 L 226.2 167.7 L 227.6 167.6 L 228.3 167.5 L 229.6 167.3 L 230.5 167.3 L 231.6 167.1 L 232.6 167.0 L 233.6 166.9 L 234.8 166.8 L 235.6 166.7 L 237.1 166.5 L 237.7 166.4 L 239.3 166.3 L 239.8 166.2 L 241.9 165.9 L 242.2 165.9 L 244.3 165.7 L 246.2 165.5 L 246.4 165.4 L 248.6 165.2 L 248.6 165.2 L 250.8 164.9 L 251.0 164.9 L 253.0 164.7 L 253.4 164.7 L 255.0 164.5 L 255.8 164.4 L 257.3 164.2 L 258.3 164.1 L 259.5 164.0 L 260.7 163.8 L 261.8 163.7 L 263.1 163.6 L 263.8 163.4 L 265.2 163.2 L 265.6 163.2 L 267.0 163.0 L 267.3 162.9 L 268.6 162.6 L 268.7 162.6 L 270.0 162.1 L 270.0 162.1 L 271.2 161.6 L 271.3 161.5 L 272.2 160.9 L 272.4 160.7 L 273.0 160.0 L 273.2 159.7 L 273.6 158.9 L 273.8 158.6 L 274.0 157.8 L 274.2 157.3 L 274.3 156.7 L 274.3 156.0 L 274.3 155.5 L 274.3 154.7 L 274.3 154.2 L 274.3 153.3 L 274.2 152.9 L 274.1 151.8 L 274.1 151.5 L 273.9 150.3 L 273.9 150.1 L 273.7 148.7 L 273.7 148.7 L 273.5 147.1 L 273.5 147.0 L 273.3 145.5 L 273.2 145.2 L 272.9 143.9 L 272.9 143.6 L 272.7 142.9 L 272.6 142.4 L 272.2 141.2 L 272.1 140.7 L 271.7 139.5 L 271.5 138.9 L 271.1 137.7 L 270.9 136.9 L 270.5 135.9 L 270.2 135.0 L 269.9 134.2 L 269.4 133.0 L 269.2 132.6 L 268.5 131.2 L 268.3 130.9 L 267.2 129.5 L 267.1 129.3 L 265.7 128.0 L 265.7 128.0 L 264.0 126.9 L 263.8 126.8 L 262.2 126.0 L 261.8 125.9 L 260.2 125.3 L 259.7 125.1 L 258.3 124.6 L 257.6 124.4 L 256.3 123.9 L 255.5 123.6 L 254.4 123.1 L 253.4 122.6 L 252.6 122.2 L 251.1 121.3 L 250.8 121.1 L 249.3 119.9 L 249.2 119.8 L 247.8 118.2 L 247.8 118.2 L 246.3 116.2 L 246.2 116.0 L 245.4 114.3 L 245.3 113.9 L 244.8 112.2 L 244.7 111.7 L 244.5 110.1 L 244.4 109.4 L 244.4 108.0 L 244.5 107.0 L 244.7 105.8 L 244.8 104.6 L 245.0 103.7 L 245.2 102.3 L 245.3 101.5 L 245.6 100.0 L 245.7 99.4 L 246.0 97.7 L 246.1 97.2 L 246.4 95.3 L 246.5 95.1 L 246.8 92.9 L 247.2 90.9 L 247.2 90.7 L 247.5 88.5 L 247.5 88.5 L 247.8 86.3 L 247.9 86.1 L 248.0 84.1 L 248.1 83.6 L 248.1 82.0 L 248.1 81.2 L 248.1 79.7 L 248.1 78.7 L 248.1 77.4 L 248.0 76.2 L 248.0 75.1 L 247.9 73.7 L 247.9 72.9 L 247.8 71.1 L 247.8 70.6 L 247.8 69.3 L 247.8 68.9 L 247.7 66.9 L 247.7 66.6 L 247.5 64.3 L 247.5 64.3 L 247.4 62.0 L 247.4 61.8 L 247.2 59.7 L 247.2 59.3 L 247.1 57.3 L 247.0 56.7 L 246.9 55.0 L 246.8 54.2 L 246.7 52.8 L 246.6 51.9 L 246.5 50.8 L 246.4 49.9 L 246.3 49.1 L 246.1 48.0 L 246.0 47.5 L 245.9 46.7 L 245.8 46.5 L 245.6 45.5 L 245.6 45.2 L 245.2 44.2 L 245.2 44.1 L 244.8 43.1 L 244.8 43.1 L 244.3 42.1 L 244.3 42.1 L 243.8 41.3 L 243.7 41.2 L 243.2 40.5 L 243.0 40.4 L 242.5 39.9 L 242.2 39.7 L 241.7 39.4 L 241.5 39.3 L 240.9 39.1 L 240.6 39.1 L 240.1 39.0 L 239.7 39.0 L 239.2 39.1 L 238.8 39.2 L 238.5 39.3 L 238.0 39.6 L 237.8 39.7 L 237.2 40.1 L 237.1 40.2 L 236.6 40.8 L 236.5 40.9 L 235.9 41.6 L 235.9 41.6 L 235.4 42.4 L 235.3 42.5 L 234.9 43.3 L 234.8 43.5 L 234.4 44.4 L 234.2 44.9 L 234.0 45.5 L 233.8 46.2 L 233.6 46.7 L 233.4 47.6 L 233.3 48.1 L 233.1 49.1 L 233.0 49.5 L 232.7 50.7 L 232.7 50.9 L 232.4 52.4 L 232.4 52.5 L 232.1 54.1 L 232.1 54.1 L 231.7 55.7 L 231.7 55.9 L 231.3 57.4 L 231.2 57.7 L 230.8 59.1 L 230.7 59.6 L 230.2 60.9 L 230.0 61.5 L 229.6 62.6 L 229.3 63.5 L 229.0 64.4 L 228.6 65.4 L 228.3 66.2 L 227.9 67.4 L 227.7 68.1 L 227.2 69.4 L 227.0 69.9 L 226.4 71.5 L 226.3 71.8 L 225.7 73.6 L 225.6 73.8 L 224.9 75.7 L 224.9 75.7 L 224.2 77.8 L 224.1 78.0 L 223.4 79.8 L 223.3 80.1 L 222.7 81.8 L 222.5 82.4 L 221.9 83.8 L 221.7 84.6 L 221.3 85.7 L 220.8 86.9 L 220.5 87.8 L 220.0 89.2 L 219.7 90.0 L 219.2 91.5 L 219.0 92.1 L 218.3 93.8 L 218.2 94.2 L 217.4 96.2 L 217.4 96.4 L 216.6 98.6 L 216.6 98.6 L 215.8 100.8 L 215.7 101.0 L 215.0 103.0 L 214.9 103.4 L 214.2 105.2 L 214.0 105.9 L 213.4 107.5 L 213.1 108.3 L 212.5 109.7 L 212.2 110.8 L 211.7 112.0 L 211.3 113.3 L 210.9 114.3 L 210.4 115.8 L 210.1 116.6 L 209.5 118.3 L 209.2 118.9 L 208.6 120.8 L 208.4 121.2 L 207.6 123.3 L 207.6 123.5 L 206.7 125.8 L 206.7 125.8 L 205.9 128.2 L 205.8 128.4 L 205.0 130.5 L 204.9 130.9 L 204.2 132.9 L 203.9 133.5 L 203.3 135.2 L 203.0 136.1 L 202.5 137.6 L 202.1 138.6 L 201.6 139.9 L 201.1 141.2 L 200.7 142.3 L 200.4 143.4 L 199.9 144.7 L 199.4 146.0 L 199.0 147.0 L 198.5 148.6 L 198.2 149.4 L 197.5 151.2 L 197.3 151.8 L 196.6 153.7 L 196.5 154.0 L 195.6 156.3 L 194.8 158.7 L 194.5 159.4 L 193.9 161.1 L 193.6 161.9 L 193.1 163.3 L 192.7 164.4 L 192.2 165.7 L 191.8 167.0 L 191.4 168.0 L 190.7 170.0 L 190.5 170.4 L 189.8 172.5 L 189.7 172.7 L 189.0 174.7 L 189.0 174.7 L 188.5 176.5 L 188.4 176.7 L 188.0 178.1 L 188.0 178.4 L 187.7 179.5 L 187.7 179.8 L 187.5 180.7 L 187.5 181.2 L 187.3 181.8 L 187.3 182.3 L 187.2 182.8 L 187.1 183.3 L 187.0 183.7 L 186.9 184.2 L 186.9 184.5 L 186.9 185.1 L 186.8 185.3 L 186.9 185.8 L 186.9 185.9 L 187.0 186.5 L 187.0 186.5 L 187.3 187.0 L 187.3 187.0 L 187.7 187.4 L 187.7 187.4 L 188.2 187.6 L 188.3 187.7 L 188.8 187.7 L 189.0 187.7 L 189.4 187.7 L 189.5 187.7 L 190.0 187.7 L 190.2 187.6 L 190.6 187.6 L 190.9 187.6 L 191.3 187.5 L 191.7 187.5 L 192.1 187.5 L 192.5 187.4 L 192.9 187.4 L 193.5 187.4 L 193.7 187.4 L 194.3 187.6 L 194.5 187.6 L 195.0 188.1 L 195.0 188.2 L 195.3 189.0 L 195.3 189.0 L 195.5 189.9 L 195.6 190.0 L 195.7 190.8 L 195.8 191.0 L 196.0 191.7 L 196.1 192.0 L 196.2 192.7 L 196.3 193.1 L 196.5 193.7 L 196.7 194.2 L 196.8 194.8 L 197.0 195.4 L 197.1 195.8 L 197.3 196.6 L 197.5 197.1 L 197.8 198.0 L 197.9 198.4 L 198.3 199.8 L 198.3 199.8 L 198.9 201.3 L 198.9 201.4 L 199.5 202.7 L 199.6 203.0 L 200.2 204.3 L 200.4 204.7 L 200.9 205.8 L 201.4 206.6 L 201.7 207.3 L 202.3 208.3 L 202.6 208.9 L 203.3 210.0 L 203.6 210.5 L 204.4 211.8 L 204.6 212.1 L 205.6 213.5 L 205.7 213.7 L 206.9 215.2 L 206.9 215.2 L 208.2 216.8 L 208.4 216.9 L 209.6 218.3 L 209.9 218.6 L 211.0 219.7 L 211.5 220.1 L 212.6 221.2 L 213.2 221.7 L 214.2 222.6 L 214.9 223.3 L 215.7 223.9 L 216.7 224.8 L 217.4 225.3 L 218.6 226.3 L 219.0 226.7 L 220.4 227.9 L 220.8 228.2 L 222.3 229.5 L 222.5 229.7 L 224.2 231.1 L 224.2 231.1 L 226.0 232.6 L 226.5 233.0 L 227.8 234.1 L 228.4 234.6 L 229.6 235.6 L 230.4 236.3 L 231.4 237.2 L 232.4 238.0 L 233.2 238.7 L 234.7 240.0 L 235.0 240.3 L 236.7 241.7 L 236.9 241.8 L 238.7 243.4 L 238.8 243.4 L 240.7 245.0 L 240.8 245.1 L 242.6 246.5 L 242.9 246.8 L 244.6 248.0 L 245.1 248.4 L 246.6 249.5 L 247.3 250.0 L 248.6 250.9 L 249.5 251.5 L 250.7 252.2 L 251.8 253.0 L 252.8 253.6 L 254.1 254.4 L 254.9 254.9 L 256.5 255.7 L 257.1 256.1 L 259.0 257.0 L 259.4 257.2 L 261.5 258.2 L 261.7 258.3 L 264.0 259.3 L 264.0 259.3 L 266.5 260.4 L 266.8 260.5 L 268.9 261.5 L 269.3 261.6 L 271.1 262.3 L 272.1 262.8 L 273.4 263.2 L 274.5 263.7 L 275.3 264.0 L 276.7 264.5 L 277.1 264.7 L 278.5 265.2 L 278.8 265.4 L 280.2 265.9 L 280.3 266.0 L 281.7 266.5 L 281.8 266.5 L 283.1 266.9 L 283.2 266.9 L 284.3 267.0 L 284.6 267.0 L 285.7 266.9 L 286.0 266.8 L 286.9 266.6 L 287.4 266.4 L 288.1 266.1 L 288.6 265.8 L 289.3 265.5 L 289.8 265.1 L 290.3 264.8 L 290.8 264.3 L 291.2 263.9 L 292.1 262.6 L 292.4 262.2 L 292.8 261.2 L 292.8 261.0 L 293.1 259.8 L 293.1 259.7 L 293.2 258.4 L 293.2 258.4 L 293.0 257.0 L 293.0 256.9 L 292.6 255.7 L 292.5 255.5 L 292.1 254.5 L 291.9 254.2 L 291.4 253.3 L 291.1 252.9 L 290.6 252.1 L 290.1 251.6 L 289.6 251.0 L 289.0 250.5 L 288.5 250.0 L 287.7 249.4 L 287.2 249.1 L 286.2 248.5 L 285.8 248.3 L 284.8 247.8 L 284.3 247.6 L 283.1 247.1 L 282.7 247.0 L 281.0 246.6 L 280.6 246.5 L 278.6 246.0 L 278.5 246.0 L 276.8 245.7 L 276.7 245.6 L 275.0 245.3 L 274.6 245.3 L 273.1 245.1 L 272.6 245.0 L 271.2 244.9 L 270.5 244.8 L 269.2 244.7 L 268.3 244.6 L 267.2 244.6 L 266.1 244.5 L 265.2 244.4 L 263.9 244.3 L 263.2 244.3 L 261.7 244.1 L 261.1 244.1 L 259.4 243.9 L 259.1 243.9 L 257.2 243.7 L 257.0 243.6 L 254.9 243.2 L 254.9 243.2 L 252.9 242.5 L 252.8 242.5 L 251.0 241.6 L 250.6 241.4 L 249.1 240.5 L 248.6 240.2 L 247.2 239.4 L 246.5 238.9 L 245.4 238.1 L 244.6 237.5 L 243.6 236.8 L 242.7 236.0 L 242.0 235.4 L 241.1 234.4 L 240.6 233.9 L 239.7 232.7 L 239.5 232.2 L 238.7 230.6 L 238.6 230.3 L 238.1 228.5 L 238.0 228.3 L 237.6 226.6 L 237.6 226.6 L 237.2 225.1 L 237.2 224.9 L 236.9 223.7 L 236.9 223.7 L 236.8 222.4 L 236.8 222.3 L 236.8 221.2 L 236.8 220.9 L 236.8 220.0 L 236.8 219.7 L 236.9 219.0 L 236.9 218.6 L 237.0 218.1 L 237.1 217.6 L 237.2 217.3 L 237.3 216.7 L 237.4 216.5 L 237.7 216.0 L 237.9 215.8 L 238.3 215.4 L 238.5 215.3 L 239.1 215.0 L 239.2 214.9 L 240.1 214.7 L 240.3 214.7 L 241.0 214.5 L 241.2 214.5 L 241.9 214.5 L 242.3 214.5 L 242.9 214.5 L 243.4 214.6 L 244.0 214.7 L 244.6 214.7 L 245.1 214.8 L 245.8 214.8 L 246.2 214.7 L 246.9 214.5 L 247.2 214.5 L 248.0 214.1 L 248.2 214.0 L 249.0 213.5 L 249.1 213.4 L 249.9 212.8 L 249.9 212.8 L 250.7 212.1 L 250.8 212.0 L 251.4 211.3 L 251.5 211.1 L 252.0 210.4 L 252.1 210.1 L 252.4 209.4 L 252.4 209.0 L 252.6 208.3 L 252.6 207.8 L 252.7 207.1 L 252.8 206.4 L 252.8 205.9 L 252.8 205.1 L 252.9 204.6 L 252.8 203.6 L 252.8 203.3 L 252.7 202.4 L 252.6 202.0 L 252.4 201.2 L 252.3 201.0 L 251.9 200.1 L 251.8 199.9 L 251.2 199.1 L 251.1 199.0 L 250.4 198.3 L 250.4 198.2 L 249.6 197.6 L 249.5 197.5 L 248.8 197.0 L 248.5 196.9 L 247.8 196.5 L 247.4 196.4 L 246.8 196.2 L 246.3 196.0 L 245.6 195.9 L 245.0 195.9 L 244.4 195.9 L 243.6 195.9 L 243.1 195.9 L 242.1 196.0 L 241.7 196.0 L 240.6 196.2 L 240.3 196.2 L 238.8 196.4 L 238.7 196.4 L 237.5 196.6 L 237.2 196.7 L 235.9 196.9 L 235.5 196.9 L 234.3 197.1 L 233.7 197.2 L 232.6 197.3 L 231.8 197.4 L 230.8 197.5 L 229.9 197.7 L 229.1 197.9 L 227.9 198.1 L 227.2 198.2 L 225.9 198.5 L 225.4 198.6 L 223.9 198.9 L 223.5 199.0 L 221.8 199.3 L 221.6 199.3 L 219.7 199.6 L 219.7 199.6 L 217.8 199.5 L 217.6 199.4 L 215.9 198.9 L 215.5 198.8 L 213.9 198.1 L 213.4 197.9 L 212.2 197.2 L 211.9 197.0 L 210.6 196.1 L 210.3 195.7 L 209.4 194.7 L 208.9 194.1 L 208.2 193.0 L 207.7 192.2 L 207.2 191.3 L 206.6 190.4 L 206.2 189.7 L 205.5 188.5 L 205.2 188.0 L 204.1 186.3 L 203.1 184.5 L 203.1 184.3 L 202.3 182.7 L 202.2 182.4 L 201.7 181.0 L 201.6 180.6 L 201.3 179.5 L 201.2 178.9 L 201.0 178.0 L 201.0 177.4 L 201.0 176.6 L 201.0 175.9 L 201.0 175.3 L 201.1 174.5 L 201.2 174.2 L 201.3 173.7 L 201.3 173.5 L 201.6 172.7 L 201.7 172.5 L 202.2 171.7 L 202.3 171.6 L 203.0 171.0 L 203.1 170.9 L 203.9 170.5 L 204.1 170.4 L 204.8 170.1 L 205.2 170.0 L 205.8 169.9 L 206.0 169.8 L 206.3 169.8 L 206.8 169.6 L 207.4 169.5 L 208.1 169.4 L 208.5 169.3 L 209.4 169.1 L 209.8 169.1 L 210.9 168.9 L 211.1 168.9 L 212.5 168.8 L 212.6 168.8 L 214.1 168.7 L 215.6 168.7 L 215.7 168.7 L 217.3 168.6 L 217.3 168.6 L 219.0 168.5 L 219.2 168.5 L 220.8 168.4 L 221.1 168.4 L 222.6 168.2 L 222.8 168.2 Z" fill="none" stroke="rgba(255,255,255,0.92)" stroke-width="3.2" stroke-linejoin="round" stroke-linecap="round"/>
  <path d="M 222.6 168.2 L 223.8 168.0 L 224.2 168.0 L 225.7 167.8 L 226.2 167.7 L 227.6 167.6 L 228.3 167.5 L 229.6 167.3 L 230.5 167.3 L 231.6 167.1 L 232.6 167.0 L 233.6 166.9 L 234.8 166.8 L 235.6 166.7 L 237.1 166.5 L 237.7 166.4 L 239.3 166.3 L 239.8 166.2 L 241.9 165.9 L 242.2 165.9 L 244.3 165.7 L 246.2 165.5 L 246.4 165.4 L 248.6 165.2 L 248.6 165.2 L 250.8 164.9 L 251.0 164.9 L 253.0 164.7 L 253.4 164.7 L 255.0 164.5 L 255.8 164.4 L 257.3 164.2 L 258.3 164.1 L 259.5 164.0 L 260.7 163.8 L 261.8 163.7 L 263.1 163.6 L 263.8 163.4 L 265.2 163.2 L 265.6 163.2 L 267.0 163.0 L 267.3 162.9 L 268.6 162.6 L 268.7 162.6 L 270.0 162.1 L 270.0 162.1 L 271.2 161.6 L 271.3 161.5 L 272.2 160.9 L 272.4 160.7 L 273.0 160.0 L 273.2 159.7 L 273.6 158.9 L 273.8 158.6 L 274.0 157.8 L 274.2 157.3 L 274.3 156.7 L 274.3 156.0 L 274.3 155.5 L 274.3 154.7 L 274.3 154.2 L 274.3 153.3 L 274.2 152.9 L 274.1 151.8 L 274.1 151.5 L 273.9 150.3 L 273.9 150.1 L 273.7 148.7 L 273.7 148.7 L 273.5 147.1 L 273.5 147.0 L 273.3 145.5 L 273.2 145.2 L 272.9 143.9 L 272.9 143.6 L 272.7 142.9 L 272.6 142.4 L 272.2 141.2 L 272.1 140.7 L 271.7 139.5 L 271.5 138.9 L 271.1 137.7 L 270.9 136.9 L 270.5 135.9 L 270.2 135.0 L 269.9 134.2 L 269.4 133.0 L 269.2 132.6 L 268.5 131.2 L 268.3 130.9 L 267.2 129.5 L 267.1 129.3 L 265.7 128.0 L 265.7 128.0 L 264.0 126.9 L 263.8 126.8 L 262.2 126.0 L 261.8 125.9 L 260.2 125.3 L 259.7 125.1 L 258.3 124.6 L 257.6 124.4 L 256.3 123.9 L 255.5 123.6 L 254.4 123.1 L 253.4 122.6 L 252.6 122.2 L 251.1 121.3 L 250.8 121.1 L 249.3 119.9 L 249.2 119.8 L 247.8 118.2 L 247.8 118.2 L 246.3 116.2 L 246.2 116.0 L 245.4 114.3 L 245.3 113.9 L 244.8 112.2 L 244.7 111.7 L 244.5 110.1 L 244.4 109.4 L 244.4 108.0 L 244.5 107.0 L 244.7 105.8 L 244.8 104.6 L 245.0 103.7 L 245.2 102.3 L 245.3 101.5 L 245.6 100.0 L 245.7 99.4 L 246.0 97.7 L 246.1 97.2 L 246.4 95.3 L 246.5 95.1 L 246.8 92.9 L 247.2 90.9 L 247.2 90.7 L 247.5 88.5 L 247.5 88.5 L 247.8 86.3 L 247.9 86.1 L 248.0 84.1 L 248.1 83.6 L 248.1 82.0 L 248.1 81.2 L 248.1 79.7 L 248.1 78.7 L 248.1 77.4 L 248.0 76.2 L 248.0 75.1 L 247.9 73.7 L 247.9 72.9 L 247.8 71.1 L 247.8 70.6 L 247.8 69.3 L 247.8 68.9 L 247.7 66.9 L 247.7 66.6 L 247.5 64.3 L 247.5 64.3 L 247.4 62.0 L 247.4 61.8 L 247.2 59.7 L 247.2 59.3 L 247.1 57.3 L 247.0 56.7 L 246.9 55.0 L 246.8 54.2 L 246.7 52.8 L 246.6 51.9 L 246.5 50.8 L 246.4 49.9 L 246.3 49.1 L 246.1 48.0 L 246.0 47.5 L 245.9 46.7 L 245.8 46.5 L 245.6 45.5 L 245.6 45.2 L 245.2 44.2 L 245.2 44.1 L 244.8 43.1 L 244.8 43.1 L 244.3 42.1 L 244.3 42.1 L 243.8 41.3 L 243.7 41.2 L 243.2 40.5 L 243.0 40.4 L 242.5 39.9 L 242.2 39.7 L 241.7 39.4 L 241.5 39.3 L 240.9 39.1 L 240.6 39.1 L 240.1 39.0 L 239.7 39.0 L 239.2 39.1 L 238.8 39.2 L 238.5 39.3 L 238.0 39.6 L 237.8 39.7 L 237.2 40.1 L 237.1 40.2 L 236.6 40.8 L 236.5 40.9 L 235.9 41.6 L 235.9 41.6 L 235.4 42.4 L 235.3 42.5 L 234.9 43.3 L 234.8 43.5 L 234.4 44.4 L 234.2 44.9 L 234.0 45.5 L 233.8 46.2 L 233.6 46.7 L 233.4 47.6 L 233.3 48.1 L 233.1 49.1 L 233.0 49.5 L 232.7 50.7 L 232.7 50.9 L 232.4 52.4 L 232.4 52.5 L 232.1 54.1 L 232.1 54.1 L 231.7 55.7 L 231.7 55.9 L 231.3 57.4 L 231.2 57.7 L 230.8 59.1 L 230.7 59.6 L 230.2 60.9 L 230.0 61.5 L 229.6 62.6 L 229.3 63.5 L 229.0 64.4 L 228.6 65.4 L 228.3 66.2 L 227.9 67.4 L 227.7 68.1 L 227.2 69.4 L 227.0 69.9 L 226.4 71.5 L 226.3 71.8 L 225.7 73.6 L 225.6 73.8 L 224.9 75.7 L 224.9 75.7 L 224.2 77.8 L 224.1 78.0 L 223.4 79.8 L 223.3 80.1 L 222.7 81.8 L 222.5 82.4 L 221.9 83.8 L 221.7 84.6 L 221.3 85.7 L 220.8 86.9 L 220.5 87.8 L 220.0 89.2 L 219.7 90.0 L 219.2 91.5 L 219.0 92.1 L 218.3 93.8 L 218.2 94.2 L 217.4 96.2 L 217.4 96.4 L 216.6 98.6 L 216.6 98.6 L 215.8 100.8 L 215.7 101.0 L 215.0 103.0 L 214.9 103.4 L 214.2 105.2 L 214.0 105.9 L 213.4 107.5 L 213.1 108.3 L 212.5 109.7 L 212.2 110.8 L 211.7 112.0 L 211.3 113.3 L 210.9 114.3 L 210.4 115.8 L 210.1 116.6 L 209.5 118.3 L 209.2 118.9 L 208.6 120.8 L 208.4 121.2 L 207.6 123.3 L 207.6 123.5 L 206.7 125.8 L 206.7 125.8 L 205.9 128.2 L 205.8 128.4 L 205.0 130.5 L 204.9 130.9 L 204.2 132.9 L 203.9 133.5 L 203.3 135.2 L 203.0 136.1 L 202.5 137.6 L 202.1 138.6 L 201.6 139.9 L 201.1 141.2 L 200.7 142.3 L 200.4 143.4 L 199.9 144.7 L 199.4 146.0 L 199.0 147.0 L 198.5 148.6 L 198.2 149.4 L 197.5 151.2 L 197.3 151.8 L 196.6 153.7 L 196.5 154.0 L 195.6 156.3 L 194.8 158.7 L 194.5 159.4 L 193.9 161.1 L 193.6 161.9 L 193.1 163.3 L 192.7 164.4 L 192.2 165.7 L 191.8 167.0 L 191.4 168.0 L 190.7 170.0 L 190.5 170.4 L 189.8 172.5 L 189.7 172.7 L 189.0 174.7 L 189.0 174.7 L 188.5 176.5 L 188.4 176.7 L 188.0 178.1 L 188.0 178.4 L 187.7 179.5 L 187.7 179.8 L 187.5 180.7 L 187.5 181.2 L 187.3 181.8 L 187.3 182.3 L 187.2 182.8 L 187.1 183.3 L 187.0 183.7 L 186.9 184.2 L 186.9 184.5 L 186.9 185.1 L 186.8 185.3 L 186.9 185.8 L 186.9 185.9 L 187.0 186.5 L 187.0 186.5 L 187.3 187.0 L 187.3 187.0 L 187.7 187.4 L 187.7 187.4 L 188.2 187.6 L 188.3 187.7 L 188.8 187.7 L 189.0 187.7 L 189.4 187.7 L 189.5 187.7 L 190.0 187.7 L 190.2 187.6 L 190.6 187.6 L 190.9 187.6 L 191.3 187.5 L 191.7 187.5 L 192.1 187.5 L 192.5 187.4 L 192.9 187.4 L 193.5 187.4 L 193.7 187.4 L 194.3 187.6 L 194.5 187.6 L 195.0 188.1 L 195.0 188.2 L 195.3 189.0 L 195.3 189.0 L 195.5 189.9 L 195.6 190.0 L 195.7 190.8 L 195.8 191.0 L 196.0 191.7 L 196.1 192.0 L 196.2 192.7 L 196.3 193.1 L 196.5 193.7 L 196.7 194.2 L 196.8 194.8 L 197.0 195.4 L 197.1 195.8 L 197.3 196.6 L 197.5 197.1 L 197.8 198.0 L 197.9 198.4 L 198.3 199.8 L 198.3 199.8 L 198.9 201.3 L 198.9 201.4 L 199.5 202.7 L 199.6 203.0 L 200.2 204.3 L 200.4 204.7 L 200.9 205.8 L 201.4 206.6 L 201.7 207.3 L 202.3 208.3 L 202.6 208.9 L 203.3 210.0 L 203.6 210.5 L 204.4 211.8 L 204.6 212.1 L 205.6 213.5 L 205.7 213.7 L 206.9 215.2 L 206.9 215.2 L 208.2 216.8 L 208.4 216.9 L 209.6 218.3 L 209.9 218.6 L 211.0 219.7 L 211.5 220.1 L 212.6 221.2 L 213.2 221.7 L 214.2 222.6 L 214.9 223.3 L 215.7 223.9 L 216.7 224.8 L 217.4 225.3 L 218.6 226.3 L 219.0 226.7 L 220.4 227.9 L 220.8 228.2 L 222.3 229.5 L 222.5 229.7 L 224.2 231.1 L 224.2 231.1 L 226.0 232.6 L 226.5 233.0 L 227.8 234.1 L 228.4 234.6 L 229.6 235.6 L 230.4 236.3 L 231.4 237.2 L 232.4 238.0 L 233.2 238.7 L 234.7 240.0 L 235.0 240.3 L 236.7 241.7 L 236.9 241.8 L 238.7 243.4 L 238.8 243.4 L 240.7 245.0 L 240.8 245.1 L 242.6 246.5 L 242.9 246.8 L 244.6 248.0 L 245.1 248.4 L 246.6 249.5 L 247.3 250.0 L 248.6 250.9 L 249.5 251.5 L 250.7 252.2 L 251.8 253.0 L 252.8 253.6 L 254.1 254.4 L 254.9 254.9 L 256.5 255.7 L 257.1 256.1 L 259.0 257.0 L 259.4 257.2 L 261.5 258.2 L 261.7 258.3 L 264.0 259.3 L 264.0 259.3 L 266.5 260.4 L 266.8 260.5 L 268.9 261.5 L 269.3 261.6 L 271.1 262.3 L 272.1 262.8 L 273.4 263.2 L 274.5 263.7 L 275.3 264.0 L 276.7 264.5 L 277.1 264.7 L 278.5 265.2 L 278.8 265.4 L 280.2 265.9 L 280.3 266.0 L 281.7 266.5 L 281.8 266.5 L 283.1 266.9 L 283.2 266.9 L 284.3 267.0 L 284.6 267.0 L 285.7 266.9 L 286.0 266.8 L 286.9 266.6 L 287.4 266.4 L 288.1 266.1 L 288.6 265.8 L 289.3 265.5 L 289.8 265.1 L 290.3 264.8 L 290.8 264.3 L 291.2 263.9 L 292.1 262.6 L 292.4 262.2 L 292.8 261.2 L 292.8 261.0 L 293.1 259.8 L 293.1 259.7 L 293.2 258.4 L 293.2 258.4 L 293.0 257.0 L 293.0 256.9 L 292.6 255.7 L 292.5 255.5 L 292.1 254.5 L 291.9 254.2 L 291.4 253.3 L 291.1 252.9 L 290.6 252.1 L 290.1 251.6 L 289.6 251.0 L 289.0 250.5 L 288.5 250.0 L 287.7 249.4 L 287.2 249.1 L 286.2 248.5 L 285.8 248.3 L 284.8 247.8 L 284.3 247.6 L 283.1 247.1 L 282.7 247.0 L 281.0 246.6 L 280.6 246.5 L 278.6 246.0 L 278.5 246.0 L 276.8 245.7 L 276.7 245.6 L 275.0 245.3 L 274.6 245.3 L 273.1 245.1 L 272.6 245.0 L 271.2 244.9 L 270.5 244.8 L 269.2 244.7 L 268.3 244.6 L 267.2 244.6 L 266.1 244.5 L 265.2 244.4 L 263.9 244.3 L 263.2 244.3 L 261.7 244.1 L 261.1 244.1 L 259.4 243.9 L 259.1 243.9 L 257.2 243.7 L 257.0 243.6 L 254.9 243.2 L 254.9 243.2 L 252.9 242.5 L 252.8 242.5 L 251.0 241.6 L 250.6 241.4 L 249.1 240.5 L 248.6 240.2 L 247.2 239.4 L 246.5 238.9 L 245.4 238.1 L 244.6 237.5 L 243.6 236.8 L 242.7 236.0 L 242.0 235.4 L 241.1 234.4 L 240.6 233.9 L 239.7 232.7 L 239.5 232.2 L 238.7 230.6 L 238.6 230.3 L 238.1 228.5 L 238.0 228.3 L 237.6 226.6 L 237.6 226.6 L 237.2 225.1 L 237.2 224.9 L 236.9 223.7 L 236.9 223.7 L 236.8 222.4 L 236.8 222.3 L 236.8 221.2 L 236.8 220.9 L 236.8 220.0 L 236.8 219.7 L 236.9 219.0 L 236.9 218.6 L 237.0 218.1 L 237.1 217.6 L 237.2 217.3 L 237.3 216.7 L 237.4 216.5 L 237.7 216.0 L 237.9 215.8 L 238.3 215.4 L 238.5 215.3 L 239.1 215.0 L 239.2 214.9 L 240.1 214.7 L 240.3 214.7 L 241.0 214.5 L 241.2 214.5 L 241.9 214.5 L 242.3 214.5 L 242.9 214.5 L 243.4 214.6 L 244.0 214.7 L 244.6 214.7 L 245.1 214.8 L 245.8 214.8 L 246.2 214.7 L 246.9 214.5 L 247.2 214.5 L 248.0 214.1 L 248.2 214.0 L 249.0 213.5 L 249.1 213.4 L 249.9 212.8 L 249.9 212.8 L 250.7 212.1 L 250.8 212.0 L 251.4 211.3 L 251.5 211.1 L 252.0 210.4 L 252.1 210.1 L 252.4 209.4 L 252.4 209.0 L 252.6 208.3 L 252.6 207.8 L 252.7 207.1 L 252.8 206.4 L 252.8 205.9 L 252.8 205.1 L 252.9 204.6 L 252.8 203.6 L 252.8 203.3 L 252.7 202.4 L 252.6 202.0 L 252.4 201.2 L 252.3 201.0 L 251.9 200.1 L 251.8 199.9 L 251.2 199.1 L 251.1 199.0 L 250.4 198.3 L 250.4 198.2 L 249.6 197.6 L 249.5 197.5 L 248.8 197.0 L 248.5 196.9 L 247.8 196.5 L 247.4 196.4 L 246.8 196.2 L 246.3 196.0 L 245.6 195.9 L 245.0 195.9 L 244.4 195.9 L 243.6 195.9 L 243.1 195.9 L 242.1 196.0 L 241.7 196.0 L 240.6 196.2 L 240.3 196.2 L 238.8 196.4 L 238.7 196.4 L 237.5 196.6 L 237.2 196.7 L 235.9 196.9 L 235.5 196.9 L 234.3 197.1 L 233.7 197.2 L 232.6 197.3 L 231.8 197.4 L 230.8 197.5 L 229.9 197.7 L 229.1 197.9 L 227.9 198.1 L 227.2 198.2 L 225.9 198.5 L 225.4 198.6 L 223.9 198.9 L 223.5 199.0 L 221.8 199.3 L 221.6 199.3 L 219.7 199.6 L 219.7 199.6 L 217.8 199.5 L 217.6 199.4 L 215.9 198.9 L 215.5 198.8 L 213.9 198.1 L 213.4 197.9 L 212.2 197.2 L 211.9 197.0 L 210.6 196.1 L 210.3 195.7 L 209.4 194.7 L 208.9 194.1 L 208.2 193.0 L 207.7 192.2 L 207.2 191.3 L 206.6 190.4 L 206.2 189.7 L 205.5 188.5 L 205.2 188.0 L 204.1 186.3 L 203.1 184.5 L 203.1 184.3 L 202.3 182.7 L 202.2 182.4 L 201.7 181.0 L 201.6 180.6 L 201.3 179.5 L 201.2 178.9 L 201.0 178.0 L 201.0 177.4 L 201.0 176.6 L 201.0 175.9 L 201.0 175.3 L 201.1 174.5 L 201.2 174.2 L 201.3 173.7 L 201.3 173.5 L 201.6 172.7 L 201.7 172.5 L 202.2 171.7 L 202.3 171.6 L 203.0 171.0 L 203.1 170.9 L 203.9 170.5 L 204.1 170.4 L 204.8 170.1 L 205.2 170.0 L 205.8 169.9 L 206.0 169.8 L 206.3 169.8 L 206.8 169.6 L 207.4 169.5 L 208.1 169.4 L 208.5 169.3 L 209.4 169.1 L 209.8 169.1 L 210.9 168.9 L 211.1 168.9 L 212.5 168.8 L 212.6 168.8 L 214.1 168.7 L 215.6 168.7 L 215.7 168.7 L 217.3 168.6 L 217.3 168.6 L 219.0 168.5 L 219.2 168.5 L 220.8 168.4 L 221.1 168.4 L 222.6 168.2 L 222.8 168.2 Z" fill="none" stroke="rgba(255,122,26,0.6)" stroke-width="1.4" stroke-linejoin="round" stroke-linecap="round"/>
</svg>
