<svg xmlns="http://www.w3.org/2000/svg" viewBox="0 0 1600 900" role="img" aria-label="Circuit of the Americas hero">
  <defs>
    <linearGradient id="bg" x1="0" y1="0" x2="1" y2="1">
      <stop offset="0%" stop-color="#0a0f1a"/>
      <stop offset="100%" stop-color="#181b25"/>
    </linearGradient>
    <radialGradient id="glow" cx="0.5" cy="0.4" r="0.7">
      <stop offset="0%" stop-color="rgba(255,122,26,0.18)"/>
      <stop offset="100%" stop-color="rgba(255,122,26,0)"/>
    </radialGradient>
  </defs>
  <rect width="1600" height="900" fill="url(#bg)"/>
  <rect width="1600" height="900" fill="url(#glow)"/>
  <path d="M 267.2 600.5 L 269.6 602.5 L 274.3 606.1 L 276.9 608.1 L 282.5 612.4 L 284.4 613.9 L 289.5 617.8 L 292.2 619.9 L 298.1 624.3 L 300.1 625.9 L 306.8 630.9 L 308.1 632.0 L 315.7 637.8 L 316.2 638.3 L 324.5 644.6 L 324.7 644.7 L 333.0 651.1 L 334.0 651.7 L 341.6 657.6 L 343.4 658.9 L 350.2 664.3 L 352.9 666.2 L 359.0 671.0 L 362.4 673.6 L 367.8 677.8 L 372.1 681.0 L 376.8 684.7 L 381.9 688.6 L 385.9 691.6 L 391.9 696.2 L 395.0 698.6 L 401.9 703.9 L 404.3 705.7 L 412.0 711.7 L 413.6 712.8 L 422.3 719.4 L 423.0 720.0 L 432.4 727.2 L 432.6 727.4 L 441.9 734.4 L 442.9 735.3 L 451.4 741.7 L 453.3 743.1 L 461.0 749.1 L 464.3 751.6 L 472.8 758.1 L 476.7 761.1 L 482.5 765.5 L 487.1 769.0 L 492.2 773.0 L 497.7 777.2 L 501.9 780.4 L 508.3 785.3 L 511.6 787.9 L 518.8 793.7 L 521.2 795.6 L 528.9 801.5 L 529.7 802.1 L 539.9 809.9 L 540.1 810.0 L 549.8 817.4 L 550.7 818.1 L 558.5 824.7 L 559.9 825.9 L 565.7 830.9 L 566.5 831.5 L 572.5 836.5 L 573.8 837.5 L 578.5 841.4 L 580.0 842.6 L 583.7 845.5 L 585.5 846.7 L 588.4 848.5 L 590.7 849.5 L 593.2 850.4 L 595.9 851.1 L 598.0 851.5 L 601.0 851.9 L 602.5 852.0 L 605.6 851.8 L 606.6 851.7 L 609.7 850.6 L 610.3 850.3 L 613.4 848.0 L 613.6 847.6 L 615.8 844.9 L 616.1 844.3 L 617.3 841.6 L 617.6 840.5 L 618.0 837.9 L 618.1 836.4 L 618.1 834.1 L 617.9 832.3 L 617.7 830.3 L 617.5 828.0 L 617.3 826.3 L 616.9 823.6 L 616.7 822.3 L 616.2 819.1 L 616.1 818.0 L 615.2 813.5 L 615.1 813.4 L 614.2 809.0 L 614.0 808.4 L 612.6 804.0 L 612.2 802.9 L 610.5 798.6 L 609.2 795.8 L 607.8 792.8 L 606.1 789.3 L 604.9 786.6 L 602.8 782.2 L 601.8 780.0 L 599.5 775.1 L 599.0 774.0 L 595.9 766.9 L 595.7 766.3 L 592.9 758.6 L 592.8 758.5 L 590.7 752.1 L 590.4 751.3 L 588.2 743.5 L 588.2 743.3 L 586.2 734.7 L 585.9 733.6 L 585.3 725.6 L 585.2 723.7 L 585.8 716.0 L 586.2 713.0 L 587.5 706.2 L 588.2 702.4 L 589.7 696.5 L 591.1 692.0 L 593.1 687.2 L 595.5 682.0 L 597.7 678.1 L 601.1 672.3 L 603.1 669.4 L 607.6 663.3 L 609.3 661.4 L 615.5 655.2 L 616.8 654.2 L 624.5 647.9 L 625.1 647.5 L 633.8 641.5 L 633.9 641.4 L 642.8 635.8 L 643.9 635.2 L 652.8 630.4 L 654.8 629.4 L 662.5 625.5 L 665.2 624.0 L 672.0 620.4 L 675.7 618.4 L 681.7 615.2 L 686.1 612.5 L 690.8 609.3 L 695.9 605.4 L 699.8 602.5 L 705.7 598.1 L 708.7 595.8 L 716.7 589.3 L 717.3 588.8 L 724.8 581.1 L 724.9 580.9 L 730.7 571.9 L 731.3 570.8 L 736.4 561.5 L 737.6 559.5 L 742.1 551.8 L 743.7 548.9 L 747.2 542.8 L 750.0 538.4 L 753.5 533.5 L 757.3 528.8 L 760.6 525.3 L 765.7 520.9 L 768.7 518.7 L 775.8 514.8 L 778.4 513.6 L 786.8 509.9 L 788.4 509.0 L 796.3 503.9 L 796.9 503.5 L 803.5 496.0 L 804.7 494.2 L 809.0 486.9 L 810.3 484.3 L 812.9 477.7 L 813.9 474.0 L 815.4 467.7 L 816.5 463.0 L 817.8 457.9 L 819.0 452.3 L 820.2 448.1 L 822.4 442.0 L 823.7 438.8 L 827.0 432.2 L 828.2 430.1 L 832.6 423.7 L 833.6 422.6 L 839.6 416.3 L 840.1 415.8 L 847.1 410.0 L 847.3 409.9 L 854.4 404.8 L 855.2 404.4 L 861.9 400.5 L 863.5 399.6 L 869.8 396.8 L 872.1 395.8 L 877.9 393.8 L 881.1 393.0 L 886.3 392.2 L 890.4 392.0 L 895.0 392.0 L 900.0 392.4 L 903.8 393.0 L 909.5 394.4 L 912.5 395.3 L 919.1 397.8 L 921.4 398.6 L 929.2 402.1 L 930.6 402.7 L 938.3 406.8 L 938.9 407.1 L 947.0 411.6 L 947.1 411.7 L 954.8 415.2 L 956.5 415.9 L 963.7 418.0 L 966.2 418.7 L 972.4 420.0 L 975.6 420.5 L 980.7 420.7 L 984.3 420.3 L 988.5 419.3 L 992.8 417.4 L 996.3 415.5 L 1001.3 412.4 L 1003.8 410.8 L 1009.1 407.2 L 1010.8 405.8 L 1016.1 401.2 L 1017.1 400.2 L 1022.5 394.1 L 1022.9 393.6 L 1028.2 386.6 L 1028.3 386.4 L 1033.7 380.0 L 1034.8 378.8 L 1037.2 376.2 L 1038.8 374.3 L 1041.9 371.0 L 1044.1 368.6 L 1046.5 366.3 L 1049.1 364.2 L 1051.4 362.8 L 1054.8 360.9 L 1056.7 360.0 L 1060.6 358.6 L 1062.0 358.2 L 1066.7 357.5 L 1067.6 357.4 L 1073.1 357.5 L 1073.7 357.5 L 1078.4 358.2 L 1079.4 358.5 L 1083.5 359.7 L 1084.9 360.3 L 1088.4 361.9 L 1090.2 362.9 L 1093.1 364.8 L 1095.4 366.4 L 1097.8 368.3 L 1100.3 370.3 L 1102.3 372.0 L 1105.1 375.0 L 1106.5 376.6 L 1110.0 380.3 L 1111.3 381.4 L 1116.0 384.4 L 1117.0 384.8 L 1123.1 387.1 L 1123.6 387.1 L 1129.9 388.1 L 1131.9 388.2 L 1137.1 388.0 L 1139.9 387.9 L 1144.5 387.4 L 1147.9 387.1 L 1152.1 386.5 L 1157.1 385.9 L 1161.0 385.2 L 1166.2 384.2 L 1168.9 383.5 L 1174.8 382.0 L 1176.9 381.4 L 1183.9 379.6 L 1185.3 379.2 L 1193.3 377.2 L 1193.9 377.0 L 1202.7 374.7 L 1202.9 374.7 L 1211.7 372.2 L 1212.7 371.9 L 1220.6 369.1 L 1222.4 368.5 L 1229.5 365.3 L 1232.2 364.1 L 1238.6 361.1 L 1242.1 359.5 L 1247.7 356.7 L 1251.8 354.5 L 1256.2 351.7 L 1262.2 346.8 L 1264.1 344.9 L 1270.6 338.7 L 1271.9 337.4 L 1278.6 330.2 L 1279.1 329.6 L 1286.1 321.4 L 1286.3 321.3 L 1292.9 312.9 L 1293.7 312.0 L 1299.8 304.3 L 1301.2 302.6 L 1306.7 295.7 L 1308.8 293.1 L 1313.8 286.9 L 1317.8 281.9 L 1320.8 278.1 L 1325.3 272.7 L 1327.6 269.9 L 1333.0 263.4 L 1334.9 261.1 L 1341.0 253.7 L 1342.2 252.2 L 1348.9 243.9 L 1349.5 243.2 L 1356.6 234.1 L 1356.7 233.9 L 1363.2 225.8 L 1364.7 224.1 L 1370.8 216.9 L 1373.0 214.3 L 1378.2 208.0 L 1380.8 205.0 L 1384.9 200.1 L 1387.9 196.7 L 1391.1 193.1 L 1394.1 189.6 L 1396.3 187.0 L 1399.3 183.5 L 1400.7 181.7 L 1403.2 178.1 L 1404.0 176.9 L 1406.2 172.9 L 1406.6 172.2 L 1408.5 168.3 L 1408.6 167.9 L 1410.0 163.9 L 1410.0 163.9 L 1410.8 160.2 L 1410.8 159.8 L 1410.8 156.5 L 1410.6 155.8 L 1409.8 153.0 L 1409.3 152.2 L 1408.1 150.2 L 1407.1 149.3 L 1405.6 147.9 L 1404.2 147.0 L 1402.7 146.2 L 1400.9 145.5 L 1399.6 145.1 L 1397.6 144.6 L 1396.6 144.3 L 1393.6 144.1 L 1393.4 144.0 L 1390.1 144.0 L 1390.0 144.1 L 1386.6 144.2 L 1386.2 144.3 L 1382.9 144.6 L 1381.5 144.8 L 1379.1 145.1 L 1377.1 145.5 L 1375.0 145.9 L 1372.6 146.5 L 1370.7 146.9 L 1367.7 147.7 L 1366.1 148.2 L 1362.4 149.4 L 1361.1 149.8 L 1356.5 151.4 L 1355.7 151.7 L 1350.1 153.7 L 1349.8 153.8 L 1344.9 155.7 L 1344.2 155.9 L 1338.2 158.1 L 1336.8 158.6 L 1331.2 160.6 L 1329.1 161.4 L 1323.9 163.3 L 1321.0 164.4 L 1316.1 166.2 L 1313.8 167.0 L 1308.2 169.0 L 1305.0 170.1 L 1299.9 172.0 L 1295.9 173.4 L 1291.5 174.9 L 1286.5 176.7 L 1282.8 178.0 L 1276.8 180.0 L 1273.7 181.1 L 1266.9 183.4 L 1264.6 184.1 L 1256.7 186.8 L 1255.2 187.3 L 1246.3 190.3 L 1245.6 190.5 L 1235.9 193.6 L 1235.7 193.7 L 1226.0 196.5 L 1224.8 196.8 L 1215.9 199.4 L 1213.8 200.0 L 1205.6 202.3 L 1202.5 203.1 L 1195.3 205.2 L 1191.2 206.3 L 1184.8 208.1 L 1179.6 209.5 L 1174.1 211.0 L 1168.1 212.6 L 1163.6 213.8 L 1156.4 215.7 L 1152.7 216.7 L 1144.3 218.8 L 1141.6 219.5 L 1132.1 221.9 L 1130.4 222.3 L 1119.8 225.0 L 1119.1 225.2 L 1107.6 228.0 L 1107.4 228.1 L 1096.1 230.8 L 1094.8 231.1 L 1084.4 233.5 L 1082.0 234.1 L 1072.7 236.2 L 1069.2 237.0 L 1060.9 238.9 L 1056.2 240.0 L 1050.0 241.3 L 1043.2 242.9 L 1038.0 244.0 L 1030.0 245.7 L 1025.8 246.5 L 1016.7 248.5 L 1013.6 249.1 L 1003.5 251.2 L 1001.6 251.5 L 990.2 253.8 L 989.3 253.9 L 976.9 256.4 L 976.6 256.4 L 964.3 258.7 L 962.9 259.0 L 951.8 261.0 L 949.2 261.5 L 939.1 263.3 L 935.4 264.0 L 926.5 265.5 L 921.6 266.3 L 913.7 267.6 L 907.6 268.7 L 900.9 269.8 L 893.7 271.0 L 888.1 271.9 L 879.7 273.3 L 875.3 273.9 L 865.6 275.2 L 862.3 275.5 L 851.4 276.8 L 849.3 277.0 L 837.2 278.5 L 836.3 278.5 L 823.3 279.9 L 822.9 280.0 L 810.1 281.3 L 808.6 281.5 L 797.0 282.6 L 794.3 282.9 L 783.9 283.9 L 780.0 284.3 L 770.7 285.1 L 765.6 285.7 L 757.5 286.4 L 750.9 287.1 L 743.6 287.8 L 736.0 288.6 L 730.4 289.1 L 721.7 290.0 L 717.2 290.5 L 707.4 291.5 L 704.3 291.7 L 694.6 292.8 L 692.9 292.9 L 683.1 293.8 L 682.5 293.8 L 674.4 294.6 L 673.5 294.7 L 666.7 295.3 L 665.2 295.5 L 659.9 296.0 L 658.0 296.2 L 653.8 296.7 L 651.7 297.1 L 648.7 297.7 L 647.4 298.1 L 644.4 299.3 L 642.7 300.1 L 640.3 301.5 L 638.4 302.7 L 636.6 304.0 L 634.9 305.5 L 633.8 306.6 L 632.3 308.4 L 631.8 309.4 L 630.7 312.0 L 630.5 312.8 L 629.8 315.8 L 629.8 316.4 L 629.7 319.6 L 629.8 319.8 L 630.4 323.2 L 630.4 323.3 L 631.4 326.6 L 631.6 327.0 L 632.8 329.9 L 633.0 330.7 L 634.6 333.5 L 635.1 334.6 L 636.7 337.2 L 637.7 338.8 L 639.4 341.1 L 640.8 343.1 L 642.5 345.2 L 644.4 347.4 L 646.0 349.1 L 648.7 351.8 L 650.1 353.2 L 653.4 356.5 L 654.5 357.6 L 658.5 361.4 L 659.4 362.1 L 665.1 367.6 L 665.5 367.9 L 670.9 373.0 L 671.0 373.2 L 676.4 378.5 L 677.0 379.1 L 680.9 383.1 L 681.9 384.2 L 686.3 389.2 L 687.7 391.2 L 691.1 395.7 L 692.7 398.2 L 694.7 401.3 L 696.3 404.6 L 697.3 406.9 L 698.4 410.6 L 698.9 412.5 L 699.6 416.6 L 699.8 417.9 L 700.0 421.1 L 700.0 422.8 L 699.7 426.2 L 699.5 427.3 L 698.5 430.8 L 698.3 431.4 L 696.6 435.1 L 696.5 435.4 L 694.1 438.9 L 694.1 439.0 L 691.5 441.9 L 691.2 442.2 L 688.5 444.3 L 687.9 444.7 L 685.2 445.9 L 683.3 446.5 L 681.3 446.8 L 679.0 447.1 L 677.2 447.2 L 674.1 447.3 L 672.8 447.3 L 671.0 447.4 L 670.4 447.3 L 666.6 447.2 L 665.8 447.1 L 661.7 446.3 L 661.4 446.1 L 656.6 444.3 L 656.5 444.3 L 651.9 442.0 L 651.4 441.8 L 647.5 439.0 L 646.6 438.2 L 643.1 434.9 L 641.7 433.7 L 638.7 430.5 L 637.0 428.7 L 634.5 425.5 L 632.6 422.8 L 630.8 419.6 L 628.8 415.9 L 627.2 413.0 L 624.8 408.5 L 623.5 406.2 L 620.8 400.9 L 619.9 399.0 L 616.5 393.0 L 615.9 391.9 L 611.0 385.7 L 610.7 385.2 L 605.5 379.6 L 604.9 379.0 L 600.1 374.5 L 599.0 373.6 L 594.8 370.2 L 593.2 369.2 L 589.6 367.0 L 587.6 366.1 L 584.5 364.8 L 582.9 364.3 L 579.2 363.3 L 577.3 363.1 L 574.5 362.9 L 572.3 363.0 L 570.1 363.2 L 567.6 363.7 L 565.8 364.1 L 563.3 365.1 L 562.2 365.6 L 559.1 367.3 L 558.9 367.4 L 556.2 369.8 L 556.1 369.9 L 554.0 372.4 L 553.7 372.8 L 552.5 375.4 L 552.3 376.1 L 551.9 378.5 L 551.9 379.4 L 552.1 381.7 L 552.2 383.1 L 552.5 385.0 L 552.9 386.6 L 553.4 388.2 L 554.1 390.1 L 554.8 391.6 L 555.7 393.8 L 556.3 394.9 L 557.8 397.4 L 558.4 398.2 L 560.4 401.3 L 560.8 401.8 L 563.3 405.4 L 563.5 405.6 L 566.5 409.7 L 566.5 409.8 L 569.8 414.0 L 570.8 415.3 L 573.4 418.6 L 574.8 420.5 L 577.2 423.6 L 579.1 426.1 L 581.4 428.8 L 584.0 432.0 L 586.0 434.3 L 589.1 438.2 L 590.7 440.2 L 594.2 445.0 L 594.9 446.0 L 598.9 452.5 L 599.2 452.9 L 603.3 460.3 L 603.3 460.5 L 606.4 468.0 L 606.7 469.0 L 608.9 476.7 L 608.9 476.9 L 611.0 485.6 L 611.1 486.6 L 612.2 494.7 L 612.2 496.7 L 612.5 504.3 L 612.4 507.1 L 611.9 513.6 L 611.3 517.3 L 610.0 523.1 L 608.6 527.6 L 606.8 532.5 L 604.5 537.8 L 602.7 541.7 L 599.6 547.2 L 597.7 549.9 L 592.7 556.0 L 590.9 557.8 L 584.7 563.4 L 583.5 564.4 L 575.2 569.1 L 574.7 569.4 L 567.7 572.8 L 567.5 573.0 L 558.3 577.0 L 555.4 578.0 L 548.4 580.2 L 544.6 581.1 L 538.4 582.3 L 533.3 582.7 L 527.7 582.9 L 521.6 582.5 L 517.0 582.1 L 509.8 581.1 L 506.2 580.5 L 498.3 578.9 L 495.7 578.2 L 487.1 575.3 L 485.6 574.7 L 476.2 570.5 L 475.6 570.1 L 466.2 564.7 L 466.0 564.6 L 457.1 558.5 L 456.1 557.8 L 449.3 551.1 L 446.4 547.8 L 442.0 542.3 L 438.6 538.1 L 435.8 534.2 L 431.8 528.2 L 430.0 524.9 L 426.6 518.3 L 425.4 516.0 L 420.6 507.9 L 419.6 506.3 L 415.3 499.0 L 413.9 496.5 L 408.9 488.6 L 407.9 487.0 L 401.7 479.1 L 401.3 478.5 L 394.8 471.0 L 394.6 470.9 L 388.5 464.6 L 387.7 464.0 L 381.6 459.2 L 380.2 458.3 L 374.5 454.7 L 372.3 453.6 L 367.1 451.3 L 364.1 450.4 L 359.5 449.3 L 355.7 448.9 L 351.4 448.8 L 346.7 449.0 L 343.2 449.4 L 338.0 450.1 L 335.3 450.6 L 329.6 452.3 L 327.7 453.0 L 321.3 455.8 L 320.1 456.4 L 312.8 459.9 L 312.2 460.1 L 304.2 463.9 L 304.1 464.0 L 296.1 467.8 L 295.2 468.2 L 287.7 471.7 L 286.0 472.5 L 279.2 475.6 L 276.6 476.8 L 270.3 479.5 L 266.8 481.0 L 261.2 483.3 L 255.1 485.8 L 251.8 487.1 L 244.7 490.0 L 242.4 490.9 L 234.6 494.2 L 233.2 494.7 L 225.0 498.1 L 224.3 498.5 L 218.7 501.0 L 217.5 501.6 L 213.0 503.6 L 210.9 504.7 L 207.5 506.6 L 204.5 508.6 L 202.9 509.6 L 200.0 512.1 L 198.9 512.9 L 196.7 515.2 L 195.5 516.4 L 193.4 519.2 L 192.7 520.0 L 191.0 523.3 L 190.7 523.9 L 189.5 527.7 L 189.4 528.0 L 189.2 532.2 L 189.2 532.3 L 189.8 536.2 L 190.3 537.4 L 191.2 540.0 L 191.9 541.5 L 193.0 543.6 L 194.1 545.3 L 195.3 547.0 L 196.8 549.0 L 197.9 550.4 L 199.7 552.6 L 200.6 553.6 L 203.3 556.5 L 203.5 556.7 L 207.1 559.9 L 207.2 560.0 L 211.1 563.1 L 211.7 563.5 L 215.4 566.3 L 216.4 567.0 L 220.1 569.6 L 221.6 570.6 L 225.2 573.0 L 227.3 574.4 L 230.7 576.5 L 233.5 578.2 L 236.6 580.1 L 240.2 582.3 L 242.9 584.1 L 247.3 586.9 L 249.6 588.3 L 254.8 591.6 L 256.5 592.8 L 262.0 596.6 L 263.0 597.4 L 267.3 600.5 Z" fill="none" stroke="rgba(255,255,255,0.95)" stroke-width="6" stroke-linejoin="round" stroke-linecap="round"/>
  <path d="M 267.2 600.5 L 269.6 602.5 L 274.3 606.1 L 276.9 608.1 L 282.5 612.4 L 284.4 613.9 L 289.5 617.8 L 292.2 619.9 L 298.1 624.3 L 300.1 625.9 L 306.8 630.9 L 308.1 632.0 L 315.7 637.8 L 316.2 638.3 L 324.5 644.6 L 324.7 644.7 L 333.0 651.1 L 334.0 651.7 L 341.6 657.6 L 343.4 658.9 L 350.2 664.3 L 352.9 666.2 L 359.0 671.0 L 362.4 673.6 L 367.8 677.8 L 372.1 681.0 L 376.8 684.7 L 381.9 688.6 L 385.9 691.6 L 391.9 696.2 L 395.0 698.6 L 401.9 703.9 L 404.3 705.7 L 412.0 711.7 L 413.6 712.8 L 422.3 719.4 L 423.0 720.0 L 432.4 727.2 L 432.6 727.4 L 441.9 734.4 L 442.9 735.3 L 451.4 741.7 L 453.3 743.1 L 461.0 749.1 L 464.3 751.6 L 472.8 758.1 L 476.7 761.1 L 482.5 765.5 L 487.1 769.0 L 492.2 773.0 L 497.7 777.2 L 501.9 780.4 L 508.3 785.3 L 511.6 787.9 L 518.8 793.7 L 521.2 795.6 L 528.9 801.5 L 529.7 802.1 L 539.9 809.9 L 540.1 810.0 L 549.8 817.4 L 550.7 818.1 L 558.5 824.7 L 559.9 825.9 L 565.7 830.9 L 566.5 831.5 L 572.5 836.5 L 573.8 837.5 L 578.5 841.4 L 580.0 842.6 L 583.7 845.5 L 585.5 846.7 L 588.4 848.5 L 590.7 849.5 L 593.2 850.4 L 595.9 851.1 L 598.0 851.5 L 601.0 851.9 L 602.5 852.0 L 605.6 851.8 L 606.6 851.7 L 609.7 850.6 L 610.3 850.3 L 613.4 848.0 L 613.6 847.6 L 615.8 844.9 L 616.1 844.3 L 617.3 841.6 L 617.6 840.5 L 618.0 837.9 L 618.1 836.4 L 618.1 834.1 L 617.9 832.3 L 617.7 830.3 L 617.5 828.0 L 617.3 826.3 L 616.9 823.6 L 616.7 822.3 L 616.2 819.1 L 616.1 818.0 L 615.2 813.5 L 615.1 813.4 L 614.2 809.0 L 614.0 808.4 L 612.6 804.0 L 612.2 802.9 L 610.5 798.6 L 609.2 795.8 L 607.8 792.8 L 606.1 789.3 L 604.9 786.6 L 602.8 782.2 L 601.8 780.0 L 599.5 775.1 L 599.0 774.0 L 595.9 766.9 L 595.7 766.3 L 592.9 758.6 L 592.8 758.5 L 590.7 752.1 L 590.4 751.3 L 588.2 743.5 L 588.2 743.3 L 586.2 734.7 L 585.9 733.6 L 585.3 725.6 L 585.2 723.7 L 585.8 716.0 L 586.2 713.0 L 587.5 706.2 L 588.2 702.4 L 589.7 696.5 L 591.1 692.0 L 593.1 687.2 L 595.5 682.0 L 597.7 678.1 L 601.1 672.3 L 603.1 669.4 L 607.6 663.3 L 609.3 661.4 L 615.5 655.2 L 616.8 654.2 L 624.5 647.9 L 625.1 647.5 L 633.8 641.5 L 633.9 641.4 L 642.8 635.8 L 643.9 635.2 L 652.8 630.4 L 654.8 629.4 L 662.5 625.5 L 665.2 624.0 L 672.0 620.4 L 675.7 618.4 L 681.7 615.2 L 686.1 612.5 L 690.8 609.3 L 695.9 605.4 L 699.8 602.5 L 705.7 598.1 L 708.7 595.8 L 716.7 589.3 L 717.3 588.8 L 724.8 581.1 L 724.9 580.9 L 730.7 571.9 L 731.3 570.8 L 736.4 561.5 L 737.6 559.5 L 742.1 551.8 L 743.7 548.9 L 747.2 542.8 L 750.0 538.4 L 753.5 533.5 L 757.3 528.8 L 760.6 525.3 L 765.7 520.9 L 768.7 518.7 L 775.8 514.8 L 778.4 513.6 L 786.8 509.9 L 788.4 509.0 L 796.3 503.9 L 796.9 503.5 L 803.5 496.0 L 804.7 494.2 L 809.0 486.9 L 810.3 484.3 L 812.9 477.7 L 813.9 474.0 L 815.4 467.7 L 816.5 463.0 L 817.8 457.9 L 819.0 452.3 L 820.2 448.1 L 822.4 442.0 L 823.7 438.8 L 827.0 432.2 L 828.2 430.1 L 832.6 423.7 L 833.6 422.6 L 839.6 416.3 L 840.1 415.8 L 847.1 410.0 L 847.3 409.9 L 854.4 404.8 L 855.2 404.4 L 861.9 400.5 L 863.5 399.6 L 869.8 396.8 L 872.1 395.8 L 877.9 393.8 L 881.1 393.0 L 886.3 392.2 L 890.4 392.0 L 895.0 392.0 L 900.0 392.4 L 903.8 393.0 L 909.5 394.4 L 912.5 395.3 L 919.1 397.8 L 921.4 398.6 L 929.2 402.1 L 930.6 402.7 L 938.3 406.8 L 938.9 407.1 L 947.0 411.6 L 947.1 411.7 L 954.8 415.2 L 956.5 415.9 L 963.7 418.0 L 966.2 418.7 L 972.4 420.0 L 975.6 420.5 L 980.7 420.7 L 984.3 420.3 L 988.5 419.3 L 992.8 417.4 L 996.3 415.5 L 1001.3 412.4 L 1003.8 410.8 L 1009.1 407.2 L 1010.8 405.8 L 1016.1 401.2 L 1017.1 400.2 L 1022.5 394.1 L 1022.9 393.6 L 1028.2 386.6 L 1028.3 386.4 L 1033.7 380.0 L 1034.8 378.8 L 1037.2 376.2 L 1038.8 374.3 L 1041.9 371.0 L 1044.1 368.6 L 1046.5 366.3 L 1049.1 364.2 L 1051.4 362.8 L 1054.8 360.9 L 1056.7 360.0 L 1060.6 358.6 L 1062.0 358.2 L 1066.7 357.5 L 1067.6 357.4 L 1073.1 357.5 L 1073.7 357.5 L 1078.4 358.2 L 1079.4 358.5 L 1083.5 359.7 L 1084.9 360.3 L 1088.4 361.9 L 1090.2 362.9 L 1093.1 364.8 L 1095.4 366.4 L 1097.8 368.3 L 1100.3 370.3 L 1102.3 372.0 L 1105.1 375.0 L 1106.5 376.6 L 1110.0 380.3 L 1111.3 381.4 L 1116.0 384.4 L 1117.0 384.8 L 1123.1 387.1 L 1123.6 387.1 L 1129.9 388.1 L 1131.9 388.2 L 1137.1 388.0 L 1139.9 387.9 L 1144.5 387.4 L 1147.9 387.1 L 1152.1 386.5 L 1157.1 385.9 L 1161.0 385.2 L 1166.2 384.2 L 1168.9 383.5 L 1174.8 382.0 L 1176.9 381.4 L 1183.9 379.6 L 1185.3 379.2 L 1193.3 377.2 L 1193.9 377.0 L 1202.7 374.7 L 1202.9 374.7 L 1211.7 372.2 L 1212.7 371.9 L 1220.6 369.1 L 1222.4 368.5 L 1229.5 365.3 L 1232.2 364.1 L 1238.6 361.1 L 1242.1 359.5 L 1247.7 356.7 L 1251.8 354.5 L 1256.2 351.7 L 1262.2 346.8 L 1264.1 344.9 L 1270.6 338.7 L 1271.9 337.4 L 1278.6 330.2 L 1279.1 329.6 L 1286.1 321.4 L 1286.3 321.3 L 1292.9 312.9 L 1293.7 312.0 L 1299.8 304.3 L 1301.2 302.6 L 1306.7 295.7 L 1308.8 293.1 L 1313.8 286.9 L 1317.8 281.9 L 1320.8 278.1 L 1325.3 272.7 L 1327.6 269.9 L 1333.0 263.4 L 1334.9 261.1 L 1341.0 253.7 L 1342.2 252.2 L 1348.9 243.9 L 1349.5 243.2 L 1356.6 234.1 L 1356.7 233.9 L 1363.2 225.8 L 1364.7 224.1 L 1370.8 216.9 L 1373.0 214.3 L 1378.2 208.0 L 1380.8 205.0 L 1384.9 200.1 L 1387.9 196.7 L 1391.1 193.1 L 1394.1 189.6 L 1396.3 187.0 L 1399.3 183.5 L 1400.7 181.7 L 1403.2 178.1 L 1404.0 176.9 L 1406.2 172.9 L 1406.6 172.2 L 1408.5 168.3 L 1408.6 167.9 L 1410.0 163.9 L 1410.0 163.9 L 1410.8 160.2 L 1410.8 159.8 L 1410.8 156.5 L 1410.6 155.8 L 1409.8 153.0 L 1409.3 152.2 L 1408.1 150.2 L 1407.1 149.3 L 1405.6 147.9 L 1404.2 147.0 L 1402.7 146.2 L 1400.9 145.5 L 1399.6 145.1 L 1397.6 144.6 L 1396.6 144.3 L 1393.6 144.1 L 1393.4 144.0 L 1390.1 144.0 L 1390.0 144.1 L 1386.6 144.2 L 1386.2 144.3 L 1382.9 144.6 L 1381.5 144.8 L 1379.1 145.1 L 1377.1 145.5 L 1375.0 145.9 L 1372.6 146.5 L 1370.7 146.9 L 1367.7 147.7 L 1366.1 148.2 L 1362.4 149.4 L 1361.1 149.8 L 1356.5 151.4 L 1355.7 151.7 L 1350.1 153.7 L 1349.8 153.8 L 1344.9 155.7 L 1344.2 155.9 L 1338.2 158.1 L 1336.8 158.6 L 1331.2 160.6 L 1329.1 161.4 L 1323.9 163.3 L 1321.0 164.4 L 1316.1 166.2 L 1313.8 167.0 L 1308.2 169.0 L 1305.0 170.1 L 1299.9 172.0 L 1295.9 173.4 L 1291.5 174.9 L 1286.5 176.7 L 1282.8 178.0 L 1276.8 180.0 L 1273.7 181.1 L 1266.9 183.4 L 1264.6 184.1 L 1256.7 186.8 L 1255.2 187.3 L 1246.3 190.3 L 1245.6 190.5 L 1235.9 193.6 L 1235.7 193.7 L 1226.0 196.5 L 1224.8 196.8 L 1215.9 199.4 L 1213.8 200.0 L 1205.6 202.3 L 1202.5 203.1 L 1195.3 205.2 L 1191.2 206.3 L 1184.8 208.1 L 1179.6 209.5 L 1174.1 211.0 L 1168.1 212.6 L 1163.6 213.8 L 1156.4 215.7 L 1152.7 216.7 L 1144.3 218.8 L 1141.6 219.5 L 1132.1 221.9 L 1130.4 222.3 L 1119.8 225.0 L 1119.1 225.2 L 1107.6 228.0 L 1107.4 228.1 L 1096.1 230.8 L 1094.8 231.1 L 1084.4 233.5 L 1082.0 234.1 L 1072.7 236.2 L 1069.2 237.0 L 1060.9 238.9 L 1056.2 240.0 L 1050.0 241.3 L 1043.2 242.9 L 1038.0 244.0 L 1030.0 245.7 L 1025.8 246.5 L 1016.7 248.5 L 1013.6 249.1 L 1003.5 251.2 L 1001.6 251.5 L 990.2 253.8 L 989.3 253.9 L 976.9 256.4 L 976.6 256.4 L 964.3 258.7 L 962.9 259.0 L 951.8 261.0 L 949.2 261.5 L 939.1 263.3 L 935.4 264.0 L 926.5 265.5 L 921.6 266.3 L 913.7 267.6 L 907.6 268.7 L 900.9 269.8 L 893.7 271.0 L 888.1 271.9 L 879.7 273.3 L 875.3 273.9 L 865.6 275.2 L 862.3 275.5 L 851.4 276.8 L 849.3 277.0 L 837.2 278.5 L 836.3 278.5 L 823.3 279.9 L 822.9 280.0 L 810.1 281.3 L 808.6 281.5 L 797.0 282.6 L 794.3 282.9 L 783.9 283.9 L 780.0 284.3 L 770.7 285.1 L 765.6 285.7 L 757.5 286.4 L 750.9 287.1 L 743.6 287.8 L 736.0 288.6 L 730.4 289.1 L 721.7 290.0 L 717.2 290.5 L 707.4 291.5 L 704.3 291.7 L 694.6 292.8 L 692.9 292.9 L 683.1 293.8 L 682.5 293.8 L 674.4 294.6 L 673.5 294.7 L 666.7 295.3 L 665.2 295.5 L 659.9 296.0 L 658.0 296.2 L 653.8 296.7 L 651.7 297.1 L 648.7 297.7 L 647.4 298.1 L 644.4 299.3 L 642.7 300.1 L 640.3 301.5 L 638.4 302.7 L 636.6 304.0 L 634.9 305.5 L 633.8 306.6 L 632.3 308.4 L 631.8 309.4 L 630.7 312.0 L 630.5 312.8 L 629.8 315.8 L 629.8 316.4 L 629.7 319.6 L 629.8 319.8 L 630.4 323.2 L 630.4 323.3 L 631.4 326.6 L 631.6 327.0 L 632.8 329.9 L 633.0 330.7 L 634.6 333.5 L 635.1 334.6 L 636.7 337.2 L 637.7 338.8 L 639.4 341.1 L 640.8 343.1 L 642.5 345.2 L 644.4 347.4 L 646.0 349.1 L 648.7 351.8 L 650.1 353.2 L 653.4 356.5 L 654.5 357.6 L 658.5 361.4 L 659.4 362.1 L 665.1 367.6 L 665.5 367.9 L 670.9 373.0 L 671.0 373.2 L 676.4 378.5 L 677.0 379.1 L 680.9 383.1 L 681.9 384.2 L 686.3 389.2 L 687.7 391.2 L 691.1 395.7 L 692.7 398.2 L 694.7 401.3 L 696.3 404.6 L 697.3 406.9 L 698.4 410.6 L 698.9 412.5 L 699.6 416.6 L 699.8 417.9 L 700.0 421.1 L 700.0 422.8 L 699.7 426.2 L 699.5 427.3 L 698.5 430.8 L 698.3 431.4 L 696.6 435.1 L 696.5 435.4 L 694.1 438.9 L 694.1 439.0 L 691.5 441.9 L 691.2 442.2 L 688.5 444.3 L 687.9 444.7 L 685.2 445.9 L 683.3 446.5 L 681.3 446.8 L 679.0 447.1 L 677.2 447.2 L 674.1 447.3 L 672.8 447.3 L 671.0 447.4 L 670.4 447.3 L 666.6 447.2 L 665.8 447.1 L 661.7 446.3 L 661.4 446.1 L 656.6 444.3 L 656.5 444.3 L 651.9 442.0 L 651.4 441.8 L 647.5 439.0 L 646.6 438.2 L 643.1 434.9 L 641.7 433.7 L 638.7 430.5 L 637.0 428.7 L 634.5 425.5 L 632.6 422.8 L 630.8 419.6 L 628.8 415.9 L 627.2 413.0 L 624.8 408.5 L 623.5 406.2 L 620.8 400.9 L 619.9 399.0 L 616.5 393.0 L 615.9 391.9 L 611.0 385.7 L 610.7 385.2 L 605.5 379.6 L 604.9 379.0 L 600.1 374.5 L 599.0 373.6 L 594.8 370.2 L 593.2 369.2 L 589.6 367.0 L 587.6 366.1 L 584.5 364.8 L 582.9 364.3 L 579.2 363.3 L 577.3 363.1 L 574.5 362.9 L 572.3 363.0 L 570.1 363.2 L 567.6 363.7 L 565.8 364.1 L 563.3 365.1 L 562.2 365.6 L 559.1 367.3 L 558.9 367.4 L 556.2 369.8 L 556.1 369.9 L 554.0 372.4 L 553.7 372.8 L 552.5 375.4 L 552.3 376.1 L 551.9 378.5 L 551.9 379.4 L 552.1 381.7 L 552.2 383.1 L 552.5 385.0 L 552.9 386.6 L 553.4 388.2 L 554.1 390.1 L 554.8 391.6 L 555.7 393.8 L 556.3 394.9 L 557.8 397.4 L 558.4 398.2 L 560.4 401.3 L 560.8 401.8 L 563.3 405.4 L 563.5 405.6 L 566.5 409.7 L 566.5 409.8 L 569.8 414.0 L 570.8 415.3 L 573.4 418.6 L 574.8 420.5 L 577.2 423.6 L 579.1 426.1 L 581.4 428.8 L 584.0 432.0 L 586.0 434.3 L 589.1 438.2 L 590.7 440.2 L 594.2 445.0 L 594.9 446.0 L 598.9 452.5 L 599.2 452.9 L 603.3 460.3 L 603.3 460.5 L 606.4 468.0 L 606.7 469.0 L 608.9 476.7 L 608.9 476.9 L 611.0 485.6 L 611.1 486.6 L 612.2 494.7 L 612.2 496.7 L 612.5 504.3 L 612.4 507.1 L 611.9 513.6 L 611.3 517.3 L 610.0 523.1 L 608.6 527.6 L 606.8 532.5 L 604.5 537.8 L 602.7 541.7 L 599.6 547.2 L 597.7 549.9 L 592.7 556.0 L 590.9 557.8 L 584.7 563.4 L 583.5 564.4 L 575.2 569.1 L 574.7 569.4 L 567.7 572.8 L 567.5 573.0 L 558.3 577.0 L 555.4 578.0 L 548.4 580.2 L 544.6 581.1 L 538.4 582.3 L 533.3 582.7 L 527.7 582.9 L 521.6 582.5 L 517.0 582.1 L 509.8 581.1 L 506.2 580.5 L 498.3 578.9 L 495.7 578.2 L 487.1 575.3 L 485.6 574.7 L 476.2 570.5 L 475.6 570.1 L 466.2 564.7 L 466.0 564.6 L 457.1 558.5 L 456.1 557.8 L 449.3 551.1 L 446.4 547.8 L 442.0 542.3 L 438.6 538.1 L 435.8 534.2 L 431.8 528.2 L 430.0 524.9 L 426.6 518.3 L 425.4 516.0 L 420.6 507.9 L 419.6 506.3 L 415.3 499.0 L 413.9 496.5 L 408.9 488.6 L 407.9 487.0 L 401.7 479.1 L 401.3 478.5 L 394.8 471.0 L 394.6 470.9 L 388.5 464.6 L 387.7 464.0 L 381.6 459.2 L 380.2 458.3 L 374.5 454.7 L 372.3 453.6 L 367.1 451.3 L 364.1 450.4 L 359.5 449.3 L 355.7 448.9 L 351.4 448.8 L 346.7 449.0 L 343.2 449.4 L 338.0 450.1 L 335.3 450.6 L 329.6 452.3 L 327.7 453.0 L 321.3 455.8 L 320.1 456.4 L 312.8 459.9 L 312.2 460.1 L 304.2 463.9 L 304.1 464.0 L 296.1 467.8 L 295.2 468.2 L 287.7 471.7 L 286.0 472.5 L 279.2 475.6 L 276.6 476.8 L 270.3 479.5 L 266.8 481.0 L 261.2 483.3 L 255.1 485.8 L 251.8 487.1 L 244.7 490.0 L 242.4 490.9 L 234.6 494.2 L 233.2 494.7 L 225.0 498.1 L 224.3 498.5 L 218.7 501.0 L 217.5 501.6 L 213.0 503.6 L 210.9 504.7 L 207.5 506.6 L 204.5 508.6 L 202.9 509.6 L 200.0 512.1 L 198.9 512.9 L 196.7 515.2 L 195.5 516.4 L 193.4 519.2 L 192.7 520.0 L 191.0 523.3 L 190.7 523.9 L 189.5 527.7 L 189.4 528.0 L 189.2 532.2 L 189.2 532.3 L 189.8 536.2 L 190.3 537.4 L 191.2 540.0 L 191.9 541.5 L 193.0 543.6 L 194.1 545.3 L 195.3 547.0 L 196.8 549.0 L 197.9 550.4 L 199.7 552.6 L 200.6 553.6 L 203.3 556.5 L 203.5 556.7 L 207.1 559.9 L 207.2 560.0 L 211.1 563.1 L 211.7 563.5 L 215.4 566.3 L 216.4 567.0 L 220.1 569.6 L 221.6 570.6 L 225.2 573.0 L 227.3 574.4 L 230.7 576.5 L 233.5 578.2 L 236.6 580.1 L 240.2 582.3 L 242.9 584.1 L 247.3 586.9 L 249.6 588.3 L 254.8 591.6 L 256.5 592.8 L 262.0 596.6 L 263.0 597.4 L 267.3 600.5 Z" fill="none" stroke="rgba(255,122,26,0.85)" stroke-width="2.6" stroke-linejoin="round" stroke-linecap="round"/>
  <g font-family="Aptos, 'Segoe UI', system-ui, sans-serif">
    <text x="80" y="140" font-size="44" font-weight="800" fill="rgba(255,255,255,0.5)" letter-spacing="6">US</text>
    <text x="80" y="220" font-size="74" font-weight="900" fill="#ffffff">United States Grand Prix</text>
    <text x="80" y="270" font-size="34" font-weight="600" fill="rgba(255,255,255,0.7)">Circuit of the Americas</text>
    <text x="80" y="800" font-size="28" font-weight="700" fill="rgba(255,232,168,0.92)" letter-spacing="3">5.513 KM  ·  20 CORNERS  ·  SINCE 2012</text>
  </g>
</svg>
