<svg xmlns="http://www.w3.org/2000/svg" viewBox="0 0 480 280" role="img" aria-label="Albert Park Circuit outline">
  <rect width="480" height="280" fill="#0a0d13"/>
  <path d="M 222.6 211.8 L 221.2 210.5 L 220.9 210.2 L 219.3 208.7 L 219.3 208.7 L 218.2 207.7 L 217.9 207.4 L 214.8 204.4 L 214.3 203.9 L 213.2 202.9 L 212.9 202.6 L 211.6 201.3 L 209.9 199.8 L 208.0 197.9 L 207.3 197.3 L 206.5 196.5 L 205.0 195.0 L 202.4 192.6 L 201.7 191.9 L 200.9 191.2 L 198.5 188.9 L 197.5 188.0 L 196.3 186.9 L 195.6 186.2 L 194.9 185.5 L 194.7 185.3 L 193.2 183.7 L 192.8 183.4 L 192.0 182.4 L 191.5 181.6 L 191.0 180.7 L 190.8 180.5 L 190.4 179.4 L 190.2 176.0 L 190.2 175.8 L 190.4 174.4 L 190.4 174.4 L 190.6 173.6 L 190.7 173.1 L 191.0 172.0 L 191.4 170.6 L 191.4 170.5 L 191.5 169.9 L 191.5 169.6 L 191.6 167.1 L 191.6 167.0 L 191.5 166.2 L 191.4 165.7 L 191.4 165.5 L 191.2 164.5 L 191.0 163.3 L 190.9 162.9 L 190.4 161.6 L 190.2 161.0 L 189.3 159.5 L 189.0 159.1 L 188.1 157.7 L 187.4 156.8 L 186.8 156.2 L 186.8 156.1 L 185.4 154.7 L 184.8 154.2 L 183.9 153.4 L 182.8 152.4 L 182.7 152.4 L 181.7 151.5 L 181.1 150.9 L 179.7 149.8 L 179.6 149.6 L 178.9 149.0 L 178.2 148.4 L 177.7 147.9 L 177.2 147.4 L 176.1 146.4 L 175.3 145.6 L 174.1 144.5 L 173.1 143.5 L 172.9 143.3 L 172.3 142.7 L 170.0 140.3 L 169.5 139.8 L 167.5 137.6 L 166.1 136.1 L 165.7 135.7 L 165.0 134.9 L 164.7 134.5 L 162.8 132.2 L 162.7 132.2 L 161.3 130.5 L 160.3 129.2 L 159.9 128.7 L 157.4 125.5 L 157.2 125.2 L 156.3 124.1 L 155.6 123.1 L 155.4 122.7 L 153.6 120.3 L 153.6 120.2 L 152.5 118.7 L 152.1 118.1 L 151.3 116.9 L 150.2 115.3 L 150.2 115.2 L 149.3 114.0 L 148.7 113.0 L 147.8 111.6 L 147.2 110.8 L 146.9 110.3 L 146.3 109.4 L 145.8 108.6 L 145.2 107.7 L 145.0 107.2 L 144.9 107.1 L 144.5 106.2 L 144.1 105.4 L 144.0 105.0 L 143.8 103.8 L 143.8 103.6 L 143.8 102.1 L 143.8 101.9 L 143.9 101.3 L 144.0 101.1 L 144.2 100.7 L 144.5 100.1 L 144.6 100.0 L 144.9 99.7 L 145.2 99.3 L 145.8 99.0 L 146.2 98.8 L 146.8 98.6 L 147.3 98.5 L 147.6 98.5 L 148.9 98.3 L 149.1 98.2 L 150.5 98.1 L 150.8 98.0 L 152.1 97.9 L 152.5 97.8 L 153.6 97.7 L 154.3 97.6 L 155.0 97.5 L 155.3 97.5 L 156.8 97.0 L 157.3 96.8 L 157.6 96.7 L 158.3 96.4 L 158.9 96.0 L 159.2 95.7 L 159.6 95.4 L 160.5 94.3 L 160.6 94.3 L 161.1 93.5 L 161.1 93.5 L 161.5 92.5 L 161.6 92.1 L 161.8 91.7 L 161.9 90.8 L 162.0 89.2 L 162.0 88.9 L 162.0 87.4 L 161.9 87.1 L 161.8 86.1 L 161.7 85.2 L 161.6 84.8 L 161.5 84.2 L 161.4 83.1 L 161.3 82.5 L 161.2 81.9 L 161.1 81.4 L 160.9 80.0 L 160.5 77.6 L 160.5 77.6 L 160.4 76.8 L 160.4 76.3 L 160.3 73.8 L 160.3 73.7 L 160.3 73.2 L 160.6 69.9 L 160.7 69.2 L 161.1 67.9 L 161.3 67.4 L 161.9 66.1 L 162.4 65.3 L 162.4 65.2 L 163.1 64.2 L 163.5 63.7 L 165.2 62.0 L 165.3 61.9 L 166.4 60.9 L 167.0 60.4 L 168.1 59.6 L 168.6 59.2 L 169.2 58.7 L 169.8 58.3 L 170.9 57.5 L 171.5 57.0 L 172.1 56.7 L 172.7 56.2 L 173.6 55.7 L 174.6 55.0 L 175.8 54.3 L 175.9 54.2 L 177.2 53.5 L 177.4 53.3 L 179.2 52.4 L 179.6 52.2 L 182.4 51.0 L 183.3 50.6 L 184.0 50.3 L 184.0 50.3 L 186.5 49.2 L 186.9 49.0 L 188.1 48.5 L 188.4 48.3 L 191.0 47.2 L 191.4 47.0 L 192.7 46.4 L 193.5 46.1 L 194.4 45.7 L 196.5 44.7 L 198.0 43.9 L 198.1 43.9 L 199.6 43.1 L 200.3 42.7 L 201.8 41.8 L 202.6 41.3 L 202.8 41.2 L 204.2 40.3 L 204.5 40.2 L 205.4 39.7 L 205.5 39.6 L 207.3 39.2 L 208.3 39.0 L 209.0 39.0 L 209.8 39.4 L 210.0 39.4 L 210.7 39.8 L 212.6 40.7 L 213.1 41.1 L 214.1 41.8 L 214.7 42.3 L 214.8 42.4 L 215.6 43.0 L 217.3 43.8 L 217.8 44.1 L 219.1 44.5 L 220.6 45.0 L 222.0 45.3 L 224.0 45.7 L 225.1 45.9 L 226.2 46.1 L 227.3 46.3 L 227.4 46.4 L 229.7 46.9 L 229.8 46.9 L 231.5 47.3 L 231.6 47.3 L 233.6 48.0 L 234.9 48.5 L 235.0 48.5 L 236.5 49.2 L 237.9 49.9 L 238.6 50.3 L 240.4 51.6 L 240.9 52.0 L 242.4 53.3 L 243.3 54.3 L 244.2 55.2 L 244.7 55.9 L 245.9 57.5 L 246.2 57.9 L 246.4 58.2 L 247.3 59.8 L 247.6 60.2 L 248.8 62.5 L 249.1 63.3 L 249.6 64.5 L 249.7 64.8 L 250.2 66.3 L 250.3 66.6 L 250.7 67.7 L 250.9 68.5 L 251.5 70.9 L 252.1 73.6 L 252.3 74.6 L 252.6 75.7 L 252.8 77.3 L 252.8 77.4 L 253.3 81.1 L 253.4 82.5 L 253.4 83.4 L 253.3 84.5 L 253.2 87.8 L 253.2 87.9 L 253.1 89.4 L 253.0 90.4 L 252.8 92.3 L 252.7 93.5 L 252.7 94.2 L 252.4 95.9 L 252.4 96.2 L 252.0 97.9 L 251.7 98.8 L 251.4 99.9 L 251.2 100.5 L 250.3 102.7 L 249.8 104.3 L 249.3 105.6 L 248.4 108.4 L 247.9 110.0 L 247.4 111.4 L 246.9 113.0 L 246.8 113.3 L 246.1 114.9 L 245.8 115.8 L 245.1 117.4 L 244.7 118.2 L 244.2 119.4 L 244.1 119.4 L 243.1 121.8 L 243.0 122.3 L 242.2 125.0 L 241.9 126.9 L 241.7 128.3 L 241.6 129.1 L 241.5 130.6 L 241.5 131.5 L 241.5 132.8 L 241.7 136.3 L 241.7 136.4 L 242.0 139.4 L 242.2 141.3 L 242.2 141.5 L 242.4 142.4 L 243.4 146.9 L 243.5 147.5 L 244.2 149.4 L 244.4 150.0 L 245.6 153.1 L 245.6 153.1 L 246.4 154.9 L 248.1 158.3 L 248.3 158.6 L 248.7 159.5 L 249.2 160.2 L 249.5 160.8 L 250.5 162.4 L 251.1 163.3 L 252.4 165.0 L 252.4 165.1 L 254.2 167.1 L 255.7 168.7 L 257.3 170.4 L 257.9 171.0 L 258.5 171.6 L 259.1 172.1 L 261.0 173.9 L 262.0 174.8 L 263.2 175.8 L 263.7 176.3 L 263.8 176.3 L 266.5 178.5 L 266.6 178.6 L 268.7 180.2 L 268.8 180.3 L 270.2 181.3 L 271.8 182.3 L 271.9 182.4 L 273.5 183.2 L 274.0 183.4 L 275.2 183.8 L 276.0 183.8 L 277.4 183.8 L 279.2 183.6 L 280.2 183.5 L 280.6 183.4 L 282.8 183.1 L 289.7 183.0 L 290.1 183.0 L 292.4 183.7 L 292.6 183.8 L 293.4 184.2 L 293.9 184.6 L 294.8 185.2 L 295.4 185.7 L 295.7 185.9 L 297.1 187.1 L 297.7 187.6 L 298.8 188.5 L 299.2 188.8 L 300.3 189.8 L 301.6 190.9 L 301.8 191.1 L 302.8 191.9 L 303.0 192.0 L 304.6 193.4 L 305.1 193.8 L 305.5 194.2 L 306.3 194.8 L 307.0 195.4 L 307.6 195.9 L 310.1 198.0 L 310.6 198.4 L 312.2 199.8 L 312.3 200.0 L 313.4 200.9 L 315.4 202.8 L 315.9 203.3 L 316.9 204.4 L 317.0 204.6 L 318.9 206.9 L 318.9 207.0 L 319.5 207.7 L 320.6 209.4 L 321.2 210.4 L 322.9 213.4 L 323.4 214.3 L 324.2 216.0 L 324.4 216.6 L 325.4 219.1 L 325.6 219.6 L 326.2 221.3 L 326.4 221.9 L 327.0 223.5 L 327.2 223.9 L 327.7 225.5 L 328.1 226.8 L 328.4 227.5 L 328.7 228.5 L 329.7 231.5 L 329.8 231.6 L 330.8 234.8 L 330.8 235.0 L 331.4 236.9 L 331.5 237.2 L 332.8 241.1 L 332.8 241.2 L 333.7 243.8 L 334.0 244.8 L 334.3 245.8 L 334.6 247.0 L 334.6 247.0 L 335.0 248.5 L 335.1 248.9 L 335.3 250.0 L 335.3 250.2 L 335.5 251.5 L 335.6 252.0 L 335.8 253.0 L 335.9 253.3 L 336.0 253.8 L 336.0 253.9 L 336.2 255.2 L 336.2 255.5 L 336.2 256.4 L 336.2 256.5 L 336.1 257.3 L 336.1 257.7 L 335.9 258.2 L 335.7 258.7 L 335.5 258.9 L 335.1 259.4 L 335.0 259.4 L 333.8 260.1 L 333.8 260.1 L 333.1 260.4 L 332.7 260.5 L 331.3 260.9 L 331.2 261.0 L 330.4 261.2 L 330.1 261.3 L 329.2 261.5 L 328.5 261.7 L 328.3 261.8 L 327.4 262.0 L 327.2 262.1 L 326.2 262.3 L 325.0 262.7 L 324.1 262.9 L 322.6 263.2 L 322.4 263.3 L 321.3 263.5 L 320.9 263.6 L 320.3 263.7 L 319.8 263.9 L 318.6 264.2 L 318.4 264.2 L 316.5 264.7 L 316.0 264.9 L 315.1 265.1 L 312.6 265.7 L 312.3 265.8 L 311.1 266.2 L 310.7 266.3 L 309.4 266.6 L 308.2 266.8 L 307.3 267.0 L 306.0 267.0 L 305.3 266.9 L 304.0 266.8 L 302.9 266.5 L 302.6 266.3 L 301.0 265.3 L 301.0 265.3 L 300.3 264.8 L 299.9 264.4 L 299.0 263.5 L 298.7 263.2 L 297.6 261.9 L 297.5 261.6 L 296.2 259.8 L 295.7 259.0 L 295.4 258.4 L 295.2 257.9 L 294.6 256.8 L 294.0 255.6 L 292.9 253.4 L 292.9 253.3 L 292.5 252.5 L 292.3 252.0 L 292.1 251.7 L 291.4 250.2 L 291.2 249.7 L 290.8 248.8 L 289.7 246.7 L 289.3 246.1 L 288.7 245.1 L 288.7 245.1 L 288.3 244.4 L 288.1 244.2 L 287.7 243.7 L 287.2 243.0 L 286.7 242.6 L 285.9 242.0 L 285.7 241.9 L 285.5 241.8 L 285.2 241.8 L 285.0 241.8 L 283.9 241.8 L 283.8 241.8 L 283.2 241.9 L 282.7 242.1 L 282.5 242.3 L 282.1 242.5 L 281.9 242.7 L 281.0 243.5 L 280.9 243.6 L 280.5 244.1 L 280.5 244.1 L 279.9 244.9 L 279.9 245.0 L 279.8 245.1 L 279.5 245.5 L 279.4 245.7 L 279.1 246.3 L 278.8 246.9 L 277.7 248.5 L 277.7 248.5 L 276.4 249.9 L 275.9 250.3 L 275.5 250.6 L 274.5 251.2 L 274.4 251.2 L 273.1 251.9 L 272.2 252.3 L 271.1 252.5 L 269.9 252.6 L 269.4 252.6 L 268.2 252.5 L 266.4 252.0 L 266.3 252.0 L 265.5 251.7 L 264.9 251.5 L 264.0 251.0 L 263.1 250.5 L 262.9 250.4 L 260.8 248.7 L 260.4 248.4 L 260.1 248.1 L 259.6 247.7 L 259.1 247.2 L 256.8 245.0 L 256.8 245.0 L 254.6 242.9 L 254.5 242.8 L 253.7 242.0 L 253.3 241.6 L 252.7 241.0 L 252.1 240.4 L 250.4 238.8 L 250.1 238.4 L 249.1 237.4 L 247.8 236.2 L 247.3 235.8 L 246.6 235.0 L 244.7 233.2 L 244.4 232.9 L 242.4 230.9 L 242.2 230.7 L 241.1 229.7 L 239.0 227.5 L 238.7 227.3 L 237.9 226.5 L 236.2 224.8 L 236.0 224.6 L 234.7 223.4 L 233.4 222.1 L 233.1 221.8 L 230.8 219.6 L 230.6 219.4 L 228.7 217.6 L 228.2 217.2 L 226.4 215.4 L 225.1 214.2 L 224.8 213.9 L 224.6 213.7 L 223.5 212.7 L 222.5 211.7 Z" fill="none" stroke="rgba(255,255,255,0.92)" stroke-width="3.2" stroke-linejoin="round" stroke-linecap="round"/>
  <path d="M 222.6 211.8 L 221.2 210.5 L 220.9 210.2 L 219.3 208.7 L 219.3 208.7 L 218.2 207.7 L 217.9 207.4 L 214.8 204.4 L 214.3 203.9 L 213.2 202.9 L 212.9 202.6 L 211.6 201.3 L 209.9 199.8 L 208.0 197.9 L 207.3 197.3 L 206.5 196.5 L 205.0 195.0 L 202.4 192.6 L 201.7 191.9 L 200.9 191.2 L 198.5 188.9 L 197.5 188.0 L 196.3 186.9 L 195.6 186.2 L 194.9 185.5 L 194.7 185.3 L 193.2 183.7 L 192.8 183.4 L 192.0 182.4 L 191.5 181.6 L 191.0 180.7 L 190.8 180.5 L 190.4 179.4 L 190.2 176.0 L 190.2 175.8 L 190.4 174.4 L 190.4 174.4 L 190.6 173.6 L 190.7 173.1 L 191.0 172.0 L 191.4 170.6 L 191.4 170.5 L 191.5 169.9 L 191.5 169.6 L 191.6 167.1 L 191.6 167.0 L 191.5 166.2 L 191.4 165.7 L 191.4 165.5 L 191.2 164.5 L 191.0 163.3 L 190.9 162.9 L 190.4 161.6 L 190.2 161.0 L 189.3 159.5 L 189.0 159.1 L 188.1 157.7 L 187.4 156.8 L 186.8 156.2 L 186.8 156.1 L 185.4 154.7 L 184.8 154.2 L 183.9 153.4 L 182.8 152.4 L 182.7 152.4 L 181.7 151.5 L 181.1 150.9 L 179.7 149.8 L 179.6 149.6 L 178.9 149.0 L 178.2 148.4 L 177.7 147.9 L 177.2 147.4 L 176.1 146.4 L 175.3 145.6 L 174.1 144.5 L 173.1 143.5 L 172.9 143.3 L 172.3 142.7 L 170.0 140.3 L 169.5 139.8 L 167.5 137.6 L 166.1 136.1 L 165.7 135.7 L 165.0 134.9 L 164.7 134.5 L 162.8 132.2 L 162.7 132.2 L 161.3 130.5 L 160.3 129.2 L 159.9 128.7 L 157.4 125.5 L 157.2 125.2 L 156.3 124.1 L 155.6 123.1 L 155.4 122.7 L 153.6 120.3 L 153.6 120.2 L 152.5 118.7 L 152.1 118.1 L 151.3 116.9 L 150.2 115.3 L 150.2 115.2 L 149.3 114.0 L 148.7 113.0 L 147.8 111.6 L 147.2 110.8 L 146.9 110.3 L 146.3 109.4 L 145.8 108.6 L 145.2 107.7 L 145.0 107.2 L 144.9 107.1 L 144.5 106.2 L 144.1 105.4 L 144.0 105.0 L 143.8 103.8 L 143.8 103.6 L 143.8 102.1 L 143.8 101.9 L 143.9 101.3 L 144.0 101.1 L 144.2 100.7 L 144.5 100.1 L 144.6 100.0 L 144.9 99.7 L 145.2 99.3 L 145.8 99.0 L 146.2 98.8 L 146.8 98.6 L 147.3 98.5 L 147.6 98.5 L 148.9 98.3 L 149.1 98.2 L 150.5 98.1 L 150.8 98.0 L 152.1 97.9 L 152.5 97.8 L 153.6 97.7 L 154.3 97.6 L 155.0 97.5 L 155.3 97.5 L 156.8 97.0 L 157.3 96.8 L 157.6 96.7 L 158.3 96.4 L 158.9 96.0 L 159.2 95.7 L 159.6 95.4 L 160.5 94.3 L 160.6 94.3 L 161.1 93.5 L 161.1 93.5 L 161.5 92.5 L 161.6 92.1 L 161.8 91.7 L 161.9 90.8 L 162.0 89.2 L 162.0 88.9 L 162.0 87.4 L 161.9 87.1 L 161.8 86.1 L 161.7 85.2 L 161.6 84.8 L 161.5 84.2 L 161.4 83.1 L 161.3 82.5 L 161.2 81.9 L 161.1 81.4 L 160.9 80.0 L 160.5 77.6 L 160.5 77.6 L 160.4 76.8 L 160.4 76.3 L 160.3 73.8 L 160.3 73.7 L 160.3 73.2 L 160.6 69.9 L 160.7 69.2 L 161.1 67.9 L 161.3 67.4 L 161.9 66.1 L 162.4 65.3 L 162.4 65.2 L 163.1 64.2 L 163.5 63.7 L 165.2 62.0 L 165.3 61.9 L 166.4 60.9 L 167.0 60.4 L 168.1 59.6 L 168.6 59.2 L 169.2 58.7 L 169.8 58.3 L 170.9 57.5 L 171.5 57.0 L 172.1 56.7 L 172.7 56.2 L 173.6 55.7 L 174.6 55.0 L 175.8 54.3 L 175.9 54.2 L 177.2 53.5 L 177.4 53.3 L 179.2 52.4 L 179.6 52.2 L 182.4 51.0 L 183.3 50.6 L 184.0 50.3 L 184.0 50.3 L 186.5 49.2 L 186.9 49.0 L 188.1 48.5 L 188.4 48.3 L 191.0 47.2 L 191.4 47.0 L 192.7 46.4 L 193.5 46.1 L 194.4 45.7 L 196.5 44.7 L 198.0 43.9 L 198.1 43.9 L 199.6 43.1 L 200.3 42.7 L 201.8 41.8 L 202.6 41.3 L 202.8 41.2 L 204.2 40.3 L 204.5 40.2 L 205.4 39.7 L 205.5 39.6 L 207.3 39.2 L 208.3 39.0 L 209.0 39.0 L 209.8 39.4 L 210.0 39.4 L 210.7 39.8 L 212.6 40.7 L 213.1 41.1 L 214.1 41.8 L 214.7 42.3 L 214.8 42.4 L 215.6 43.0 L 217.3 43.8 L 217.8 44.1 L 219.1 44.5 L 220.6 45.0 L 222.0 45.3 L 224.0 45.7 L 225.1 45.9 L 226.2 46.1 L 227.3 46.3 L 227.4 46.4 L 229.7 46.9 L 229.8 46.9 L 231.5 47.3 L 231.6 47.3 L 233.6 48.0 L 234.9 48.5 L 235.0 48.5 L 236.5 49.2 L 237.9 49.9 L 238.6 50.3 L 240.4 51.6 L 240.9 52.0 L 242.4 53.3 L 243.3 54.3 L 244.2 55.2 L 244.7 55.9 L 245.9 57.5 L 246.2 57.9 L 246.4 58.2 L 247.3 59.8 L 247.6 60.2 L 248.8 62.5 L 249.1 63.3 L 249.6 64.5 L 249.7 64.8 L 250.2 66.3 L 250.3 66.6 L 250.7 67.7 L 250.9 68.5 L 251.5 70.9 L 252.1 73.6 L 252.3 74.6 L 252.6 75.7 L 252.8 77.3 L 252.8 77.4 L 253.3 81.1 L 253.4 82.5 L 253.4 83.4 L 253.3 84.5 L 253.2 87.8 L 253.2 87.9 L 253.1 89.4 L 253.0 90.4 L 252.8 92.3 L 252.7 93.5 L 252.7 94.2 L 252.4 95.9 L 252.4 96.2 L 252.0 97.9 L 251.7 98.8 L 251.4 99.9 L 251.2 100.5 L 250.3 102.7 L 249.8 104.3 L 249.3 105.6 L 248.4 108.4 L 247.9 110.0 L 247.4 111.4 L 246.9 113.0 L 246.8 113.3 L 246.1 114.9 L 245.8 115.8 L 245.1 117.4 L 244.7 118.2 L 244.2 119.4 L 244.1 119.4 L 243.1 121.8 L 243.0 122.3 L 242.2 125.0 L 241.9 126.9 L 241.7 128.3 L 241.6 129.1 L 241.5 130.6 L 241.5 131.5 L 241.5 132.8 L 241.7 136.3 L 241.7 136.4 L 242.0 139.4 L 242.2 141.3 L 242.2 141.5 L 242.4 142.4 L 243.4 146.9 L 243.5 147.5 L 244.2 149.4 L 244.4 150.0 L 245.6 153.1 L 245.6 153.1 L 246.4 154.9 L 248.1 158.3 L 248.3 158.6 L 248.7 159.5 L 249.2 160.2 L 249.5 160.8 L 250.5 162.4 L 251.1 163.3 L 252.4 165.0 L 252.4 165.1 L 254.2 167.1 L 255.7 168.7 L 257.3 170.4 L 257.9 171.0 L 258.5 171.6 L 259.1 172.1 L 261.0 173.9 L 262.0 174.8 L 263.2 175.8 L 263.7 176.3 L 263.8 176.3 L 266.5 178.5 L 266.6 178.6 L 268.7 180.2 L 268.8 180.3 L 270.2 181.3 L 271.8 182.3 L 271.9 182.4 L 273.5 183.2 L 274.0 183.4 L 275.2 183.8 L 276.0 183.8 L 277.4 183.8 L 279.2 183.6 L 280.2 183.5 L 280.6 183.4 L 282.8 183.1 L 289.7 183.0 L 290.1 183.0 L 292.4 183.7 L 292.6 183.8 L 293.4 184.2 L 293.9 184.6 L 294.8 185.2 L 295.4 185.7 L 295.7 185.9 L 297.1 187.1 L 297.7 187.6 L 298.8 188.5 L 299.2 188.8 L 300.3 189.8 L 301.6 190.9 L 301.8 191.1 L 302.8 191.9 L 303.0 192.0 L 304.6 193.4 L 305.1 193.8 L 305.5 194.2 L 306.3 194.8 L 307.0 195.4 L 307.6 195.9 L 310.1 198.0 L 310.6 198.4 L 312.2 199.8 L 312.3 200.0 L 313.4 200.9 L 315.4 202.8 L 315.9 203.3 L 316.9 204.4 L 317.0 204.6 L 318.9 206.9 L 318.9 207.0 L 319.5 207.7 L 320.6 209.4 L 321.2 210.4 L 322.9 213.4 L 323.4 214.3 L 324.2 216.0 L 324.4 216.6 L 325.4 219.1 L 325.6 219.6 L 326.2 221.3 L 326.4 221.9 L 327.0 223.5 L 327.2 223.9 L 327.7 225.5 L 328.1 226.8 L 328.4 227.5 L 328.7 228.5 L 329.7 231.5 L 329.8 231.6 L 330.8 234.8 L 330.8 235.0 L 331.4 236.9 L 331.5 237.2 L 332.8 241.1 L 332.8 241.2 L 333.7 243.8 L 334.0 244.8 L 334.3 245.8 L 334.6 247.0 L 334.6 247.0 L 335.0 248.5 L 335.1 248.9 L 335.3 250.0 L 335.3 250.2 L 335.5 251.5 L 335.6 252.0 L 335.8 253.0 L 335.9 253.3 L 336.0 253.8 L 336.0 253.9 L 336.2 255.2 L 336.2 255.5 L 336.2 256.4 L 336.2 256.5 L 336.1 257.3 L 336.1 257.7 L 335.9 258.2 L 335.7 258.7 L 335.5 258.9 L 335.1 259.4 L 335.0 259.4 L 333.8 260.1 L 333.8 260.1 L 333.1 260.4 L 332.7 260.5 L 331.3 260.9 L 331.2 261.0 L 330.4 261.2 L 330.1 261.3 L 329.2 261.5 L 328.5 261.7 L 328.3 261.8 L 327.4 262.0 L 327.2 262.1 L 326.2 262.3 L 325.0 262.7 L 324.1 262.9 L 322.6 263.2 L 322.4 263.3 L 321.3 263.5 L 320.9 263.6 L 320.3 263.7 L 319.8 263.9 L 318.6 264.2 L 318.4 264.2 L 316.5 264.7 L 316.0 264.9 L 315.1 265.1 L 312.6 265.7 L 312.3 265.8 L 311.1 266.2 L 310.7 266.3 L 309.4 266.6 L 308.2 266.8 L 307.3 267.0 L 306.0 267.0 L 305.3 266.9 L 304.0 266.8 L 302.9 266.5 L 302.6 266.3 L 301.0 265.3 L 301.0 265.3 L 300.3 264.8 L 299.9 264.4 L 299.0 263.5 L 298.7 263.2 L 297.6 261.9 L 297.5 261.6 L 296.2 259.8 L 295.7 259.0 L 295.4 258.4 L 295.2 257.9 L 294.6 256.8 L 294.0 255.6 L 292.9 253.4 L 292.9 253.3 L 292.5 252.5 L 292.3 252.0 L 292.1 251.7 L 291.4 250.2 L 291.2 249.7 L 290.8 248.8 L 289.7 246.7 L 289.3 246.1 L 288.7 245.1 L 288.7 245.1 L 288.3 244.4 L 288.1 244.2 L 287.7 243.7 L 287.2 243.0 L 286.7 242.6 L 285.9 242.0 L 285.7 241.9 L 285.5 241.8 L 285.2 241.8 L 285.0 241.8 L 283.9 241.8 L 283.8 241.8 L 283.2 241.9 L 282.7 242.1 L 282.5 242.3 L 282.1 242.5 L 281.9 242.7 L 281.0 243.5 L 280.9 243.6 L 280.5 244.1 L 280.5 244.1 L 279.9 244.9 L 279.9 245.0 L 279.8 245.1 L 279.5 245.5 L 279.4 245.7 L 279.1 246.3 L 278.8 246.9 L 277.7 248.5 L 277.7 248.5 L 276.4 249.9 L 275.9 250.3 L 275.5 250.6 L 274.5 251.2 L 274.4 251.2 L 273.1 251.9 L 272.2 252.3 L 271.1 252.5 L 269.9 252.6 L 269.4 252.6 L 268.2 252.5 L 266.4 252.0 L 266.3 252.0 L 265.5 251.7 L 264.9 251.5 L 264.0 251.0 L 263.1 250.5 L 262.9 250.4 L 260.8 248.7 L 260.4 248.4 L 260.1 248.1 L 259.6 247.7 L 259.1 247.2 L 256.8 245.0 L 256.8 245.0 L 254.6 242.9 L 254.5 242.8 L 253.7 242.0 L 253.3 241.6 L 252.7 241.0 L 252.1 240.4 L 250.4 238.8 L 250.1 238.4 L 249.1 237.4 L 247.8 236.2 L 247.3 235.8 L 246.6 235.0 L 244.7 233.2 L 244.4 232.9 L 242.4 230.9 L 242.2 230.7 L 241.1 229.7 L 239.0 227.5 L 238.7 227.3 L 237.9 226.5 L 236.2 224.8 L 236.0 224.6 L 234.7 223.4 L 233.4 222.1 L 233.1 221.8 L 230.8 219.6 L 230.6 219.4 L 228.7 217.6 L 228.2 217.2 L 226.4 215.4 L 225.1 214.2 L 224.8 213.9 L 224.6 213.7 L 223.5 212.7 L 222.5 211.7 Z" fill="none" stroke="rgba(255,122,26,0.6)" stroke-width="1.4" stroke-linejoin="round" stroke-linecap="round"/>
</svg>
