<svg xmlns="http://www.w3.org/2000/svg" viewBox="0 0 1600 900" role="img" aria-label="Circuit Zandvoort hero">
  <defs>
    <linearGradient id="bg" x1="0" y1="0" x2="1" y2="1">
      <stop offset="0%" stop-color="#0a0f1a"/>
      <stop offset="100%" stop-color="#181b25"/>
    </linearGradient>
    <radialGradient id="glow" cx="0.5" cy="0.4" r="0.7">
      <stop offset="0%" stop-color="rgba(255,122,26,0.18)"/>
      <stop offset="100%" stop-color="rgba(255,122,26,0)"/>
    </radialGradient>
  </defs>
  <rect width="1600" height="900" fill="url(#bg)"/>
  <rect width="1600" height="900" fill="url(#glow)"/>
  <path d="M 512.8 402.0 L 513.4 400.6 L 515.7 394.7 L 519.1 386.5 L 521.9 379.4 L 524.8 372.6 L 528.2 364.2 L 530.5 358.6 L 534.5 348.8 L 536.3 344.5 L 540.8 333.2 L 542.1 330.2 L 547.2 317.7 L 548.0 316.0 L 553.2 303.0 L 553.6 302.3 L 559.1 288.7 L 560.0 286.7 L 565.0 274.4 L 566.7 270.1 L 572.4 255.7 L 574.2 250.4 L 577.3 241.3 L 578.9 235.8 L 581.1 228.4 L 582.9 221.7 L 584.7 215.4 L 586.7 208.2 L 587.9 203.6 L 589.9 196.2 L 590.8 193.1 L 593.2 185.4 L 593.9 183.5 L 596.4 176.1 L 596.9 175.1 L 600.2 167.8 L 600.4 167.6 L 604.1 161.0 L 604.2 160.8 L 606.1 159.4 L 607.2 157.9 L 610.5 153.9 L 612.3 152.1 L 615.0 150.0 L 617.5 148.4 L 620.1 147.0 L 623.2 145.8 L 625.4 145.1 L 629.2 144.3 L 630.9 144.1 L 635.1 144.0 L 636.4 144.0 L 641.2 144.6 L 641.9 144.7 L 646.7 146.2 L 647.0 146.2 L 651.2 148.2 L 651.8 148.4 L 655.6 150.9 L 655.8 151.0 L 659.9 155.3 L 660.1 155.7 L 663.5 160.6 L 663.9 161.4 L 666.3 166.5 L 666.8 168.0 L 668.2 173.0 L 668.6 175.4 L 669.1 180.1 L 669.1 183.4 L 668.8 187.8 L 668.2 191.9 L 667.7 195.0 L 666.3 201.0 L 665.6 203.5 L 663.4 210.3 L 662.8 212.1 L 660.1 219.8 L 659.7 220.8 L 656.4 229.5 L 656.3 229.7 L 652.7 239.0 L 651.7 241.3 L 648.7 248.5 L 647.2 251.8 L 644.2 258.3 L 642.3 262.6 L 639.6 268.3 L 637.3 273.7 L 635.1 278.7 L 632.3 285.2 L 630.7 289.3 L 628.0 297.0 L 627.0 300.4 L 624.8 309.4 L 624.3 311.9 L 623.2 322.4 L 623.2 323.9 L 623.3 336.2 L 623.4 336.5 L 624.6 349.5 L 624.6 350.2 L 625.9 361.6 L 626.0 363.3 L 626.3 372.3 L 626.1 376.4 L 625.5 381.7 L 624.5 386.0 L 623.2 389.9 L 621.1 394.4 L 619.4 397.1 L 615.8 401.7 L 614.0 403.6 L 609.0 407.8 L 607.6 408.8 L 601.0 412.8 L 600.1 413.3 L 592.3 416.9 L 592.0 417.0 L 583.7 420.1 L 583.2 420.3 L 575.4 423.0 L 574.0 423.5 L 567.1 425.9 L 565.1 426.7 L 559.5 428.7 L 557.3 429.6 L 552.7 431.7 L 548.1 434.2 L 543.1 437.0 L 540.1 439.4 L 538.8 440.9 L 536.1 444.1 L 535.1 445.7 L 533.1 449.8 L 532.7 450.9 L 531.5 455.9 L 531.4 456.5 L 531.2 462.2 L 531.3 462.3 L 532.2 467.9 L 532.2 468.3 L 534.0 473.2 L 534.4 474.0 L 536.7 478.1 L 537.3 479.2 L 540.1 482.6 L 541.4 484.1 L 544.5 486.6 L 546.5 488.2 L 549.5 490.0 L 552.2 491.4 L 555.0 492.4 L 558.5 493.5 L 560.9 493.9 L 565.1 494.7 L 567.2 494.7 L 572.5 493.7 L 574.2 493.3 L 581.0 491.5 L 582.0 491.2 L 589.6 488.8 L 589.8 488.7 L 597.6 486.2 L 598.0 486.1 L 605.5 483.8 L 606.4 483.5 L 611.5 481.7 L 612.9 481.2 L 618.0 479.1 L 619.2 478.7 L 626.9 475.6 L 629.1 474.8 L 636.2 472.2 L 639.4 471.1 L 645.9 468.9 L 650.0 467.6 L 656.0 465.7 L 661.2 464.2 L 666.4 462.8 L 672.8 461.3 L 677.2 460.4 L 685.0 459.0 L 688.5 458.5 L 697.6 457.5 L 700.0 457.2 L 710.3 456.6 L 710.7 456.5 L 722.7 456.3 L 723.4 456.4 L 735.0 456.8 L 736.8 457.0 L 747.4 457.9 L 750.4 458.3 L 759.9 459.7 L 766.4 460.8 L 772.6 461.9 L 780.1 463.4 L 785.2 464.4 L 794.1 466.2 L 798.1 466.9 L 808.4 468.8 L 811.1 469.2 L 821.5 470.8 L 823.0 471.0 L 835.8 472.2 L 836.2 472.2 L 849.5 472.4 L 850.2 472.4 L 862.8 471.3 L 864.8 471.0 L 876.1 468.7 L 879.2 467.9 L 889.3 464.8 L 893.5 463.3 L 902.1 459.5 L 907.4 457.0 L 914.6 453.1 L 923.1 448.3 L 926.8 446.0 L 936.2 440.2 L 938.8 438.6 L 949.3 432.2 L 950.8 431.3 L 962.4 424.7 L 962.9 424.5 L 975.4 418.5 L 976.1 418.3 L 987.9 413.9 L 988.3 413.8 L 1001.9 410.4 L 1002.5 410.3 L 1014.3 408.5 L 1016.2 408.3 L 1028.0 407.3 L 1031.3 407.1 L 1041.8 406.6 L 1046.5 406.5 L 1055.9 406.3 L 1062.0 406.3 L 1070.1 406.2 L 1077.3 406.3 L 1084.2 406.3 L 1093.2 406.4 L 1097.8 406.5 L 1108.9 406.9 L 1112.0 407.0 L 1124.0 407.7 L 1125.7 407.8 L 1138.2 409.2 L 1138.6 409.2 L 1150.7 411.5 L 1151.4 411.7 L 1161.9 415.2 L 1163.5 416.0 L 1172.5 420.4 L 1174.9 421.9 L 1182.4 427.1 L 1185.4 429.8 L 1191.2 435.4 L 1194.6 439.4 L 1198.9 445.0 L 1202.2 450.3 L 1205.1 455.6 L 1208.1 462.5 L 1209.8 467.0 L 1211.9 475.3 L 1212.7 479.1 L 1213.6 489.0 L 1213.7 491.7 L 1213.1 503.3 L 1212.9 505.0 L 1210.1 519.2 L 1210.0 519.6 L 1205.7 531.5 L 1205.4 532.2 L 1199.2 543.3 L 1198.1 545.1 L 1192.0 554.9 L 1190.2 557.6 L 1184.8 566.0 L 1182.4 569.7 L 1177.7 577.0 L 1174.8 581.7 L 1170.7 588.3 L 1167.0 594.1 L 1163.6 599.7 L 1159.4 606.7 L 1156.9 611.4 L 1152.4 619.8 L 1150.5 623.5 L 1145.8 633.3 L 1144.6 636.1 L 1139.6 647.4 L 1139.0 648.8 L 1133.8 660.7 L 1133.8 661.0 L 1128.5 672.2 L 1128.1 672.9 L 1123.1 682.3 L 1122.3 683.7 L 1117.9 689.9 L 1115.8 692.4 L 1111.3 696.8 L 1108.1 699.3 L 1103.3 702.2 L 1098.6 704.4 L 1093.8 706.0 L 1087.5 707.6 L 1083.3 708.3 L 1075.8 709.2 L 1072.6 709.4 L 1064.1 709.6 L 1061.8 709.5 L 1052.2 709.2 L 1050.9 709.1 L 1040.3 708.2 L 1040.0 708.1 L 1028.9 706.4 L 1028.2 706.3 L 1017.8 704.0 L 1016.1 703.7 L 1006.6 701.0 L 1003.9 700.1 L 995.5 697.0 L 991.8 695.6 L 984.6 692.3 L 980.0 690.0 L 974.2 686.6 L 969.5 683.6 L 966.4 681.2 L 964.9 680.0 L 963.8 678.8 L 959.3 675.1 L 957.3 673.2 L 952.8 668.8 L 951.8 667.6 L 947.7 662.7 L 947.3 661.9 L 943.9 656.4 L 943.9 656.1 L 941.6 650.6 L 941.4 650.4 L 940.5 645.6 L 940.5 645.4 L 940.7 640.2 L 940.9 639.1 L 942.2 635.4 L 943.0 633.7 L 945.4 629.9 L 947.1 627.7 L 949.6 624.7 L 952.1 622.1 L 954.7 619.7 L 958.0 617.0 L 960.3 615.2 L 964.4 612.3 L 966.4 611.1 L 971.5 608.0 L 972.3 607.5 L 979.3 604.1 L 979.6 603.9 L 987.4 600.7 L 987.8 600.5 L 995.9 597.9 L 997.3 597.5 L 1004.9 595.5 L 1005.8 595.3 L 1007.2 595.2 L 1009.6 594.7 L 1017.0 593.4 L 1021.3 592.8 L 1027.3 591.9 L 1032.6 591.3 L 1037.9 590.5 L 1044.3 589.6 L 1048.4 588.8 L 1055.3 587.4 L 1058.2 586.7 L 1065.2 584.9 L 1067.1 584.3 L 1074.2 582.1 L 1075.2 581.6 L 1082.5 578.8 L 1082.7 578.7 L 1089.5 575.3 L 1089.8 575.2 L 1095.3 571.4 L 1096.3 570.5 L 1102.5 564.1 L 1103.6 562.8 L 1105.6 559.1 L 1106.3 557.2 L 1107.7 552.9 L 1108.1 550.2 L 1108.5 546.4 L 1108.5 543.1 L 1108.3 539.8 L 1107.6 535.8 L 1107.0 533.2 L 1105.9 529.9 L 1104.7 526.8 L 1102.7 523.1 L 1101.3 520.7 L 1098.3 516.7 L 1096.9 515.0 L 1092.9 511.1 L 1091.7 509.9 L 1086.1 506.1 L 1085.4 505.6 L 1078.4 502.5 L 1078.1 502.3 L 1066.1 499.2 L 1065.3 499.1 L 1054.8 497.0 L 1053.1 496.9 L 1045.8 495.9 L 1042.5 495.6 L 1036.0 494.8 L 1032.0 494.4 L 1026.4 493.6 L 1021.2 493.0 L 1016.2 492.4 L 1009.8 491.8 L 1005.6 491.4 L 997.9 490.8 L 994.6 490.6 L 985.7 490.2 L 983.3 490.1 L 973.1 490.1 L 971.7 490.1 L 960.0 490.6 L 959.7 490.6 L 947.4 491.4 L 946.7 491.5 L 934.8 492.5 L 932.9 492.8 L 922.1 494.0 L 918.9 494.6 L 909.2 496.0 L 904.8 496.8 L 896.1 498.5 L 890.6 499.7 L 883.0 501.4 L 876.2 503.1 L 869.7 504.8 L 861.5 507.0 L 856.3 508.4 L 846.9 511.2 L 842.8 512.4 L 832.2 515.9 L 829.4 516.8 L 817.5 521.1 L 815.9 521.7 L 802.8 526.7 L 802.3 526.8 L 788.6 531.9 L 787.8 532.2 L 775.5 536.2 L 775.1 536.3 L 762.5 540.1 L 761.6 540.4 L 748.2 544.6 L 746.0 545.3 L 734.0 549.3 L 730.6 550.5 L 721.0 554.0 L 716.9 555.6 L 709.5 558.6 L 704.9 560.6 L 699.0 563.1 L 693.6 565.6 L 689.0 567.6 L 684.0 570.0 L 681.7 571.1 L 676.0 574.0 L 674.5 574.7 L 668.6 577.7 L 667.8 578.1 L 661.6 581.0 L 661.4 581.0 L 655.6 583.1 L 655.2 583.3 L 650.4 584.0 L 649.6 584.0 L 645.6 583.2 L 643.6 582.7 L 640.8 581.8 L 638.5 580.4 L 636.3 578.4 L 633.3 575.4 L 631.3 573.3 L 627.7 569.8 L 626.1 568.5 L 622.1 565.8 L 621.1 565.1 L 616.3 563.1 L 615.7 562.8 L 610.2 561.7 L 610.1 561.6 L 604.4 561.2 L 604.0 561.3 L 598.9 561.9 L 598.1 562.2 L 593.8 563.4 L 592.6 563.9 L 589.1 565.5 L 587.7 566.3 L 585.0 568.2 L 583.4 569.5 L 581.6 571.4 L 579.9 573.4 L 578.7 575.3 L 577.1 578.0 L 576.3 579.9 L 575.4 582.6 L 574.9 585.2 L 574.5 588.8 L 574.4 591.2 L 574.6 595.8 L 574.9 598.0 L 575.9 604.0 L 576.2 605.3 L 577.1 609.3 L 577.2 609.9 L 578.7 617.3 L 578.8 617.4 L 580.3 625.2 L 580.4 625.8 L 581.8 633.7 L 582.0 635.1 L 583.3 641.8 L 583.8 644.8 L 584.9 651.0 L 585.6 655.1 L 586.6 660.8 L 587.4 666.0 L 588.4 670.9 L 589.4 677.2 L 590.2 681.3 L 591.4 688.8 L 592.0 692.1 L 593.6 700.9 L 594.0 703.3 L 595.7 713.2 L 595.9 714.6 L 597.9 725.6 L 598.0 726.0 L 600.0 737.9 L 600.1 738.5 L 602.1 749.9 L 602.4 751.7 L 604.3 762.1 L 604.7 764.9 L 606.3 773.8 L 606.9 777.7 L 608.0 784.6 L 608.4 787.5 L 608.9 791.2 L 609.2 795.7 L 609.5 800.4 L 609.5 805.7 L 609.2 809.0 L 608.3 814.7 L 607.8 817.2 L 605.6 823.3 L 604.9 825.0 L 601.3 831.5 L 600.8 832.4 L 595.3 838.6 L 595.2 838.9 L 588.4 844.4 L 587.9 844.7 L 580.7 848.3 L 580.5 848.5 L 571.4 851.1 L 570.8 851.1 L 561.3 852.0 L 557.7 852.0 L 550.5 851.8 L 545.8 851.5 L 539.5 851.1 L 533.9 850.6 L 528.8 850.3 L 522.2 849.9 L 518.0 849.6 L 510.3 849.1 L 507.1 848.9 L 498.2 847.8 L 496.9 847.7 L 485.8 845.6 L 485.5 845.6 L 474.1 842.6 L 473.4 842.3 L 464.3 839.2 L 462.8 838.6 L 452.9 834.7 L 450.2 833.4 L 441.8 829.1 L 438.3 827.0 L 431.2 822.3 L 426.9 819.0 L 421.3 814.3 L 416.7 809.7 L 412.3 805.2 L 407.4 799.2 L 404.2 795.1 L 399.4 787.5 L 397.4 784.0 L 392.9 774.7 L 391.8 772.1 L 388.4 761.3 L 388.0 759.9 L 386.4 747.6 L 386.3 747.2 L 387.0 733.4 L 387.1 732.6 L 389.4 719.8 L 390.0 717.8 L 393.4 706.9 L 394.6 704.1 L 399.1 694.2 L 401.8 688.1 L 407.3 674.9 L 409.8 669.0 L 412.2 662.3 L 414.8 655.8 L 417.2 649.4 L 420.2 641.6 L 422.2 636.4 L 424.8 629.7 L 427.2 623.4 L 430.4 615.4 L 432.3 610.1 L 436.0 600.9 L 437.5 596.8 L 441.6 586.2 L 442.7 583.3 L 447.4 571.4 L 448.0 569.7 L 453.1 556.5 L 453.2 556.0 L 458.5 542.4 L 458.9 541.5 L 464.3 527.4 L 465.2 525.2 L 469.1 514.7 L 470.9 510.1 L 474.5 500.8 L 476.7 494.9 L 479.9 486.7 L 482.7 479.5 L 485.4 472.5 L 488.6 464.0 L 490.9 458.3 L 494.8 448.0 L 496.4 444.0 L 499.6 435.9 L 500.6 433.3 L 505.4 420.8 L 506.1 419.0 L 511.4 405.3 L 511.7 404.7 L 513.2 401.4 Z" fill="none" stroke="rgba(255,255,255,0.95)" stroke-width="6" stroke-linejoin="round" stroke-linecap="round"/>
  <path d="M 512.8 402.0 L 513.4 400.6 L 515.7 394.7 L 519.1 386.5 L 521.9 379.4 L 524.8 372.6 L 528.2 364.2 L 530.5 358.6 L 534.5 348.8 L 536.3 344.5 L 540.8 333.2 L 542.1 330.2 L 547.2 317.7 L 548.0 316.0 L 553.2 303.0 L 553.6 302.3 L 559.1 288.7 L 560.0 286.7 L 565.0 274.4 L 566.7 270.1 L 572.4 255.7 L 574.2 250.4 L 577.3 241.3 L 578.9 235.8 L 581.1 228.4 L 582.9 221.7 L 584.7 215.4 L 586.7 208.2 L 587.9 203.6 L 589.9 196.2 L 590.8 193.1 L 593.2 185.4 L 593.9 183.5 L 596.4 176.1 L 596.9 175.1 L 600.2 167.8 L 600.4 167.6 L 604.1 161.0 L 604.2 160.8 L 606.1 159.4 L 607.2 157.9 L 610.5 153.9 L 612.3 152.1 L 615.0 150.0 L 617.5 148.4 L 620.1 147.0 L 623.2 145.8 L 625.4 145.1 L 629.2 144.3 L 630.9 144.1 L 635.1 144.0 L 636.4 144.0 L 641.2 144.6 L 641.9 144.7 L 646.7 146.2 L 647.0 146.2 L 651.2 148.2 L 651.8 148.4 L 655.6 150.9 L 655.8 151.0 L 659.9 155.3 L 660.1 155.7 L 663.5 160.6 L 663.9 161.4 L 666.3 166.5 L 666.8 168.0 L 668.2 173.0 L 668.6 175.4 L 669.1 180.1 L 669.1 183.4 L 668.8 187.8 L 668.2 191.9 L 667.7 195.0 L 666.3 201.0 L 665.6 203.5 L 663.4 210.3 L 662.8 212.1 L 660.1 219.8 L 659.7 220.8 L 656.4 229.5 L 656.3 229.7 L 652.7 239.0 L 651.7 241.3 L 648.7 248.5 L 647.2 251.8 L 644.2 258.3 L 642.3 262.6 L 639.6 268.3 L 637.3 273.7 L 635.1 278.7 L 632.3 285.2 L 630.7 289.3 L 628.0 297.0 L 627.0 300.4 L 624.8 309.4 L 624.3 311.9 L 623.2 322.4 L 623.2 323.9 L 623.3 336.2 L 623.4 336.5 L 624.6 349.5 L 624.6 350.2 L 625.9 361.6 L 626.0 363.3 L 626.3 372.3 L 626.1 376.4 L 625.5 381.7 L 624.5 386.0 L 623.2 389.9 L 621.1 394.4 L 619.4 397.1 L 615.8 401.7 L 614.0 403.6 L 609.0 407.8 L 607.6 408.8 L 601.0 412.8 L 600.1 413.3 L 592.3 416.9 L 592.0 417.0 L 583.7 420.1 L 583.2 420.3 L 575.4 423.0 L 574.0 423.5 L 567.1 425.9 L 565.1 426.7 L 559.5 428.7 L 557.3 429.6 L 552.7 431.7 L 548.1 434.2 L 543.1 437.0 L 540.1 439.4 L 538.8 440.9 L 536.1 444.1 L 535.1 445.7 L 533.1 449.8 L 532.7 450.9 L 531.5 455.9 L 531.4 456.5 L 531.2 462.2 L 531.3 462.3 L 532.2 467.9 L 532.2 468.3 L 534.0 473.2 L 534.4 474.0 L 536.7 478.1 L 537.3 479.2 L 540.1 482.6 L 541.4 484.1 L 544.5 486.6 L 546.5 488.2 L 549.5 490.0 L 552.2 491.4 L 555.0 492.4 L 558.5 493.5 L 560.9 493.9 L 565.1 494.7 L 567.2 494.7 L 572.5 493.7 L 574.2 493.3 L 581.0 491.5 L 582.0 491.2 L 589.6 488.8 L 589.8 488.7 L 597.6 486.2 L 598.0 486.1 L 605.5 483.8 L 606.4 483.5 L 611.5 481.7 L 612.9 481.2 L 618.0 479.1 L 619.2 478.7 L 626.9 475.6 L 629.1 474.8 L 636.2 472.2 L 639.4 471.1 L 645.9 468.9 L 650.0 467.6 L 656.0 465.7 L 661.2 464.2 L 666.4 462.8 L 672.8 461.3 L 677.2 460.4 L 685.0 459.0 L 688.5 458.5 L 697.6 457.5 L 700.0 457.2 L 710.3 456.6 L 710.7 456.5 L 722.7 456.3 L 723.4 456.4 L 735.0 456.8 L 736.8 457.0 L 747.4 457.9 L 750.4 458.3 L 759.9 459.7 L 766.4 460.8 L 772.6 461.9 L 780.1 463.4 L 785.2 464.4 L 794.1 466.2 L 798.1 466.9 L 808.4 468.8 L 811.1 469.2 L 821.5 470.8 L 823.0 471.0 L 835.8 472.2 L 836.2 472.2 L 849.5 472.4 L 850.2 472.4 L 862.8 471.3 L 864.8 471.0 L 876.1 468.7 L 879.2 467.9 L 889.3 464.8 L 893.5 463.3 L 902.1 459.5 L 907.4 457.0 L 914.6 453.1 L 923.1 448.3 L 926.8 446.0 L 936.2 440.2 L 938.8 438.6 L 949.3 432.2 L 950.8 431.3 L 962.4 424.7 L 962.9 424.5 L 975.4 418.5 L 976.1 418.3 L 987.9 413.9 L 988.3 413.8 L 1001.9 410.4 L 1002.5 410.3 L 1014.3 408.5 L 1016.2 408.3 L 1028.0 407.3 L 1031.3 407.1 L 1041.8 406.6 L 1046.5 406.5 L 1055.9 406.3 L 1062.0 406.3 L 1070.1 406.2 L 1077.3 406.3 L 1084.2 406.3 L 1093.2 406.4 L 1097.8 406.5 L 1108.9 406.9 L 1112.0 407.0 L 1124.0 407.7 L 1125.7 407.8 L 1138.2 409.2 L 1138.6 409.2 L 1150.7 411.5 L 1151.4 411.7 L 1161.9 415.2 L 1163.5 416.0 L 1172.5 420.4 L 1174.9 421.9 L 1182.4 427.1 L 1185.4 429.8 L 1191.2 435.4 L 1194.6 439.4 L 1198.9 445.0 L 1202.2 450.3 L 1205.1 455.6 L 1208.1 462.5 L 1209.8 467.0 L 1211.9 475.3 L 1212.7 479.1 L 1213.6 489.0 L 1213.7 491.7 L 1213.1 503.3 L 1212.9 505.0 L 1210.1 519.2 L 1210.0 519.6 L 1205.7 531.5 L 1205.4 532.2 L 1199.2 543.3 L 1198.1 545.1 L 1192.0 554.9 L 1190.2 557.6 L 1184.8 566.0 L 1182.4 569.7 L 1177.7 577.0 L 1174.8 581.7 L 1170.7 588.3 L 1167.0 594.1 L 1163.6 599.7 L 1159.4 606.7 L 1156.9 611.4 L 1152.4 619.8 L 1150.5 623.5 L 1145.8 633.3 L 1144.6 636.1 L 1139.6 647.4 L 1139.0 648.8 L 1133.8 660.7 L 1133.8 661.0 L 1128.5 672.2 L 1128.1 672.9 L 1123.1 682.3 L 1122.3 683.7 L 1117.9 689.9 L 1115.8 692.4 L 1111.3 696.8 L 1108.1 699.3 L 1103.3 702.2 L 1098.6 704.4 L 1093.8 706.0 L 1087.5 707.6 L 1083.3 708.3 L 1075.8 709.2 L 1072.6 709.4 L 1064.1 709.6 L 1061.8 709.5 L 1052.2 709.2 L 1050.9 709.1 L 1040.3 708.2 L 1040.0 708.1 L 1028.9 706.4 L 1028.2 706.3 L 1017.8 704.0 L 1016.1 703.7 L 1006.6 701.0 L 1003.9 700.1 L 995.5 697.0 L 991.8 695.6 L 984.6 692.3 L 980.0 690.0 L 974.2 686.6 L 969.5 683.6 L 966.4 681.2 L 964.9 680.0 L 963.8 678.8 L 959.3 675.1 L 957.3 673.2 L 952.8 668.8 L 951.8 667.6 L 947.7 662.7 L 947.3 661.9 L 943.9 656.4 L 943.9 656.1 L 941.6 650.6 L 941.4 650.4 L 940.5 645.6 L 940.5 645.4 L 940.7 640.2 L 940.9 639.1 L 942.2 635.4 L 943.0 633.7 L 945.4 629.9 L 947.1 627.7 L 949.6 624.7 L 952.1 622.1 L 954.7 619.7 L 958.0 617.0 L 960.3 615.2 L 964.4 612.3 L 966.4 611.1 L 971.5 608.0 L 972.3 607.5 L 979.3 604.1 L 979.6 603.9 L 987.4 600.7 L 987.8 600.5 L 995.9 597.9 L 997.3 597.5 L 1004.9 595.5 L 1005.8 595.3 L 1007.2 595.2 L 1009.6 594.7 L 1017.0 593.4 L 1021.3 592.8 L 1027.3 591.9 L 1032.6 591.3 L 1037.9 590.5 L 1044.3 589.6 L 1048.4 588.8 L 1055.3 587.4 L 1058.2 586.7 L 1065.2 584.9 L 1067.1 584.3 L 1074.2 582.1 L 1075.2 581.6 L 1082.5 578.8 L 1082.7 578.7 L 1089.5 575.3 L 1089.8 575.2 L 1095.3 571.4 L 1096.3 570.5 L 1102.5 564.1 L 1103.6 562.8 L 1105.6 559.1 L 1106.3 557.2 L 1107.7 552.9 L 1108.1 550.2 L 1108.5 546.4 L 1108.5 543.1 L 1108.3 539.8 L 1107.6 535.8 L 1107.0 533.2 L 1105.9 529.9 L 1104.7 526.8 L 1102.7 523.1 L 1101.3 520.7 L 1098.3 516.7 L 1096.9 515.0 L 1092.9 511.1 L 1091.7 509.9 L 1086.1 506.1 L 1085.4 505.6 L 1078.4 502.5 L 1078.1 502.3 L 1066.1 499.2 L 1065.3 499.1 L 1054.8 497.0 L 1053.1 496.9 L 1045.8 495.9 L 1042.5 495.6 L 1036.0 494.8 L 1032.0 494.4 L 1026.4 493.6 L 1021.2 493.0 L 1016.2 492.4 L 1009.8 491.8 L 1005.6 491.4 L 997.9 490.8 L 994.6 490.6 L 985.7 490.2 L 983.3 490.1 L 973.1 490.1 L 971.7 490.1 L 960.0 490.6 L 959.7 490.6 L 947.4 491.4 L 946.7 491.5 L 934.8 492.5 L 932.9 492.8 L 922.1 494.0 L 918.9 494.6 L 909.2 496.0 L 904.8 496.8 L 896.1 498.5 L 890.6 499.7 L 883.0 501.4 L 876.2 503.1 L 869.7 504.8 L 861.5 507.0 L 856.3 508.4 L 846.9 511.2 L 842.8 512.4 L 832.2 515.9 L 829.4 516.8 L 817.5 521.1 L 815.9 521.7 L 802.8 526.7 L 802.3 526.8 L 788.6 531.9 L 787.8 532.2 L 775.5 536.2 L 775.1 536.3 L 762.5 540.1 L 761.6 540.4 L 748.2 544.6 L 746.0 545.3 L 734.0 549.3 L 730.6 550.5 L 721.0 554.0 L 716.9 555.6 L 709.5 558.6 L 704.9 560.6 L 699.0 563.1 L 693.6 565.6 L 689.0 567.6 L 684.0 570.0 L 681.7 571.1 L 676.0 574.0 L 674.5 574.7 L 668.6 577.7 L 667.8 578.1 L 661.6 581.0 L 661.4 581.0 L 655.6 583.1 L 655.2 583.3 L 650.4 584.0 L 649.6 584.0 L 645.6 583.2 L 643.6 582.7 L 640.8 581.8 L 638.5 580.4 L 636.3 578.4 L 633.3 575.4 L 631.3 573.3 L 627.7 569.8 L 626.1 568.5 L 622.1 565.8 L 621.1 565.1 L 616.3 563.1 L 615.7 562.8 L 610.2 561.7 L 610.1 561.6 L 604.4 561.2 L 604.0 561.3 L 598.9 561.9 L 598.1 562.2 L 593.8 563.4 L 592.6 563.9 L 589.1 565.5 L 587.7 566.3 L 585.0 568.2 L 583.4 569.5 L 581.6 571.4 L 579.9 573.4 L 578.7 575.3 L 577.1 578.0 L 576.3 579.9 L 575.4 582.6 L 574.9 585.2 L 574.5 588.8 L 574.4 591.2 L 574.6 595.8 L 574.9 598.0 L 575.9 604.0 L 576.2 605.3 L 577.1 609.3 L 577.2 609.9 L 578.7 617.3 L 578.8 617.4 L 580.3 625.2 L 580.4 625.8 L 581.8 633.7 L 582.0 635.1 L 583.3 641.8 L 583.8 644.8 L 584.9 651.0 L 585.6 655.1 L 586.6 660.8 L 587.4 666.0 L 588.4 670.9 L 589.4 677.2 L 590.2 681.3 L 591.4 688.8 L 592.0 692.1 L 593.6 700.9 L 594.0 703.3 L 595.7 713.2 L 595.9 714.6 L 597.9 725.6 L 598.0 726.0 L 600.0 737.9 L 600.1 738.5 L 602.1 749.9 L 602.4 751.7 L 604.3 762.1 L 604.7 764.9 L 606.3 773.8 L 606.9 777.7 L 608.0 784.6 L 608.4 787.5 L 608.9 791.2 L 609.2 795.7 L 609.5 800.4 L 609.5 805.7 L 609.2 809.0 L 608.3 814.7 L 607.8 817.2 L 605.6 823.3 L 604.9 825.0 L 601.3 831.5 L 600.8 832.4 L 595.3 838.6 L 595.2 838.9 L 588.4 844.4 L 587.9 844.7 L 580.7 848.3 L 580.5 848.5 L 571.4 851.1 L 570.8 851.1 L 561.3 852.0 L 557.7 852.0 L 550.5 851.8 L 545.8 851.5 L 539.5 851.1 L 533.9 850.6 L 528.8 850.3 L 522.2 849.9 L 518.0 849.6 L 510.3 849.1 L 507.1 848.9 L 498.2 847.8 L 496.9 847.7 L 485.8 845.6 L 485.5 845.6 L 474.1 842.6 L 473.4 842.3 L 464.3 839.2 L 462.8 838.6 L 452.9 834.7 L 450.2 833.4 L 441.8 829.1 L 438.3 827.0 L 431.2 822.3 L 426.9 819.0 L 421.3 814.3 L 416.7 809.7 L 412.3 805.2 L 407.4 799.2 L 404.2 795.1 L 399.4 787.5 L 397.4 784.0 L 392.9 774.7 L 391.8 772.1 L 388.4 761.3 L 388.0 759.9 L 386.4 747.6 L 386.3 747.2 L 387.0 733.4 L 387.1 732.6 L 389.4 719.8 L 390.0 717.8 L 393.4 706.9 L 394.6 704.1 L 399.1 694.2 L 401.8 688.1 L 407.3 674.9 L 409.8 669.0 L 412.2 662.3 L 414.8 655.8 L 417.2 649.4 L 420.2 641.6 L 422.2 636.4 L 424.8 629.7 L 427.2 623.4 L 430.4 615.4 L 432.3 610.1 L 436.0 600.9 L 437.5 596.8 L 441.6 586.2 L 442.7 583.3 L 447.4 571.4 L 448.0 569.7 L 453.1 556.5 L 453.2 556.0 L 458.5 542.4 L 458.9 541.5 L 464.3 527.4 L 465.2 525.2 L 469.1 514.7 L 470.9 510.1 L 474.5 500.8 L 476.7 494.9 L 479.9 486.7 L 482.7 479.5 L 485.4 472.5 L 488.6 464.0 L 490.9 458.3 L 494.8 448.0 L 496.4 444.0 L 499.6 435.9 L 500.6 433.3 L 505.4 420.8 L 506.1 419.0 L 511.4 405.3 L 511.7 404.7 L 513.2 401.4 Z" fill="none" stroke="rgba(255,122,26,0.85)" stroke-width="2.6" stroke-linejoin="round" stroke-linecap="round"/>
  <g font-family="Aptos, 'Segoe UI', system-ui, sans-serif">
    <text x="80" y="140" font-size="44" font-weight="800" fill="rgba(255,255,255,0.5)" letter-spacing="6">NL</text>
    <text x="80" y="220" font-size="74" font-weight="900" fill="#ffffff">Dutch Grand Prix</text>
    <text x="80" y="270" font-size="34" font-weight="600" fill="rgba(255,255,255,0.7)">Circuit Zandvoort</text>
    <text x="80" y="800" font-size="28" font-weight="700" fill="rgba(255,232,168,0.92)" letter-spacing="3">4.259 KM  ·  14 CORNERS  ·  SINCE 1952</text>
  </g>
</svg>
